<?xml version="1.0" encoding="UTF-8"?><svg id="Layer_2" xmlns="http://www.w3.org/2000/svg" viewBox="0 0 328.33 209.9"><defs><style>.cls-1{fill:#fff;stroke-width:0px;}</style></defs><g id="Artwork"><path class="cls-1" d="M250.26,39.76c1.76,1.54,3.88,2.36,6.14,2.36h0c1.25,0,2.49-.25,3.7-.75.53-.22.97-.45,1.3-.62.09-.05.19-.1.28-.14,1.49-.72,2.98-1.45,4.47-2.18,3.32-1.63,6.76-3.31,10.14-4.82,2.66-1.19,5.37-2.26,8.24-3.39,1.61-.64,3.23-1.27,4.83-1.93l1.25-.51c2.6-1.06,5.29-2.16,7.95-3.41,3.8-1.79,5.2-4.43,5.7-6.34.51-1.92.6-4.94-1.87-8.46-1.04-1.48-2.19-2.78-3.21-3.93l-.11-.12c-3.19-3.61-7.35-5.52-12.03-5.52-.19,0-.38,0-.57,0-.09,0-.18,0-.28,0-3.77,0-6.97,1.13-9.33,2.11-3.96,1.64-7.9,4.03-12.04,7.3-6.27,4.95-11.13,10.06-14.85,15.6-.93,1.39-1.7,2.84-2.29,4.31-1.46,3.67-.44,7.76,2.59,10.43ZM253.99,31.84c.42-1.06.98-2.09,1.61-3.04,3.66-5.46,8.28-10,13.41-14.05,3.22-2.54,6.63-4.78,10.43-6.36,2.24-.93,4.54-1.65,7.07-1.58,2.96-.14,5.46.96,7.45,3.21.99,1.12,1.99,2.24,2.85,3.46,1.52,2.16,1.2,3.62-1.17,4.73-2.91,1.37-5.91,2.56-8.89,3.79-4.42,1.81-8.91,3.46-13.26,5.4-4.99,2.23-9.86,4.7-14.78,7.07-.41.2-.81.43-1.24.61-.99.41-1.92.28-2.73-.44-.87-.76-1.17-1.77-.76-2.81Z"/><path class="cls-1" d="M36.84,104.83c2.69,1.56,4.92,3.42,6.78,5.73.32.4.6.89,1.02,1.15.61.37,1.34.91,2.05.27.61-.54.1-1.17-.11-1.74-.16-.43-.36-.85-.58-1.25-1.17-2.18-2.36-4.34-3.54-6.52-.21-.38-.39-.78-.6-1.19,1.05-.72,2-1.36,2.93-2.03,1.6-1.14,2.74-2.7,3.33-4.51.85-2.63-.24-3.91-2.7-3.82-2.36.09-4.47,1.01-6.14,2.76-.7.74-1.38,1.5-2.1,2.29-.28-.25-.49-.44-.7-.62-2.3-1.85-4.75-3.45-7.63-4.25-1.43-.4-2.46.03-3.22,1.25-1.05,1.69-.9,3.9.39,5.44,1.28,1.52,2.91,2.59,4.62,3.57.68.39,1.36.8,1.86,1.09-1.16,2.86-2.25,5.52-3.32,8.18-.41,1.01-.43,1.97.43,3.05,2.69-2.81,4.36-6.31,7.23-8.85Z"/><path class="cls-1" d="M194.03,104.53c-.02.87.51,1.46,1.32,1.49.83.03,1.53-.67,1.51-1.53-.02-.76-.7-1.43-1.44-1.42-.77,0-1.37.63-1.38,1.46Z"/><path class="cls-1" d="M172.27,108.52c-.02.9.43,1.38,1.34,1.41.91.03,1.45-.44,1.48-1.29.04-.92-.56-1.56-1.45-1.55-.83,0-1.35.55-1.37,1.43Z"/><path class="cls-1" d="M195.31,95.26c1.9-.25,3.4-1.94,3.62-4.07.02-.23,0-.46,0-.72.11-1.18-.27-2.25-.92-3.23-1.85-2.75-5.54-2.49-7,.47-.73,1.48-.78,2.99-.21,4.52.75,2.04,2.61,3.27,4.51,3.02Z"/><path class="cls-1" d="M187.72,113.25c1.98-.45,3.6-2.26,3.8-4.17-.19-.06-.43-.24-.6-.18-2.82.97-5.71,1.67-8.65,2.16-.23.04-.43.31-.84.63,1.94,1.72,4.02,2.06,6.29,1.55Z"/><path class="cls-1" d="M194.86,78.98c1.64-.3,3.2-.03,4.76.44.77.23,1.54.47,2.33.62.34.07.71-.07,1.33-.16-1.35-2.23-3.11-3.34-5.41-3.53-2-.16-4.06.91-4.93,2.64.81,0,1.38.08,1.92-.02Z"/><path class="cls-1" d="M164.44,85.52c-1.89-.97-4.61-.55-6.59.88-1.99,1.44-3.63,4.52-3.35,6.43,1.4-.42,2.19-1.59,3.2-2.45,1.08-.92,2.19-1.83,3.33-2.67,1.06-.78,2.48-1.04,3.41-2.19Z"/><path class="cls-1" d="M99.68,117.46c-1.01-1.07-2.18-2.01-3.27-2.99.52-1.01,1.06-1.96,1.51-2.95.58-1.26.99-2.57.87-4-.15-1.78-1.16-2.58-2.9-2.17-1.21.29-2.23.95-2.94,1.99-.83,1.23-1.6,2.51-2.44,3.84-.83-.31-1.66-.72-2.54-.93-1.05-.25-2.14-.41-3.22-.44-.98-.02-2.05,1.03-2.19,1.89-.12.76.3,1.31,1.47,1.87.41.2.85.36,1.27.54,1.32.54,2.64,1.08,3.88,1.58-.11,2.62-.2,5.08-.31,7.54-.04.83.37,1.39,1.05,2.07,1.38-2.48,2.1-5.18,4-7.32,1.38.67,2.69,1.39,4.06,1.93,1.32.52,2.56,1.48,4.21,1.23-.06-1.91-1.54-2.65-2.52-3.69Z"/><path class="cls-1" d="M46.7,123.79c.72-1.06,1.26-2.18,1.22-3.52-.04-1.52-.97-2.33-2.46-2.03-1.4.28-2.59.92-3.36,2.2-.32.53-.67,1.04-1,1.53-1.16-.45-2.2-.9-3.28-1.25-.93-.3-1.84-.21-2.48.66-1.11,1.51-.75,2.98.94,3.81.92.45,1.88.81,2.84,1.22-.32,2.4-1.61,4.6-.94,7.24,2.44-1.15,2.83-3.74,4.77-5.24,1.13.91,2.29,1.81,3.42,2.77.74.63,1.44.9,2.34.1-.14-2.44-2.14-3.89-3.29-5.73.48-.65.9-1.19,1.29-1.76Z"/><path class="cls-1" d="M202.61,102.19c-.85-.07-1.56.56-1.58,1.4-.02.78.55,1.41,1.34,1.47.85.07,1.56-.56,1.59-1.41.03-.76-.57-1.41-1.35-1.47Z"/><path class="cls-1" d="M199.09,107.06c-.81.07-1.31.68-1.26,1.55.05.88.58,1.36,1.46,1.32.83-.04,1.37-.61,1.37-1.45,0-.87-.7-1.5-1.57-1.42Z"/><path class="cls-1" d="M173.58,95.28c-.58-1.32-1.75-1.94-3.04-2.32-2.34-.69-4.65-.46-6.89.47-.43.18-.79.52-1.26.85,1.17,1.32,2.76.77,3.96,1.4-3.29,3.01-3.48,3.32-3.07,4.89.27-.06.57-.05.8-.18,2.63-1.48,5.46-2.33,8.41-2.89,1.43-.27,1.68-.88,1.09-2.21Z"/><path class="cls-1" d="M321.15,93.67c2.34-2.52,5.17-6.01,6.33-10.72.99-4.02,1.11-8.06.36-12-2.56-13.35-10.09-23.12-22.37-29.02-5.65-2.71-11.73-4.03-18.6-4.03-1.05,0-2.13.03-3.21.09-7.3.42-14.17,2.3-20.43,5.58-.46.24-.91.51-1.42.81l-.55.33-2.54,1.49c-5.5-1.51-10.93-2.52-16.35-3.04-2.27-.22-4.52-.33-6.69-.33-5.6,0-10.98.76-16.03,2.25-1.13-4.51-3.97-8.39-8.1-11.03-3.86-2.47-7.88-3.72-11.93-3.72-2.3,0-4.6.41-6.85,1.21l-.64.23c-1.99.71-4.05,1.44-6.13,2.37-1.22.54-2.44,1.12-3.67,1.74l-2.11-.55c-4.51-1.17-8.96-1.76-13.24-1.76-7.24,0-14.12,1.67-20.58,4.97-1.27-.98-3.09-1.81-5.63-1.81h-.16c-3.46.04-6.74,1.24-9.75,3.57-1,.78-1.89,1.76-2.55,2.84-.36.58-.64,1.18-.85,1.8-1.45-.13-2.93-.21-4.48-.21-3.68,0-7.59.38-12.29,1.2-9.02,1.56-17.79,4.07-26.27,6.49l-1.55.44s-.01,0-.02,0c-2.57-4.34-5.81-8.33-9.74-11.92-5.41-4.95-11.74-8.03-18.81-9.16-3.21-.51-6.49-.77-9.75-.77-2.88,0-5.82.2-8.74.6-7.66,1.05-14.18,3.19-19.94,6.53-8.02,4.65-12.98,11.43-14.76,20.13C.28,62.42-.09,66.75.02,71.13c.13,5.28.88,10.76,2.37,17.22,3.69,16.04,8.9,31.06,13.52,43.64,2.18,5.95,6.66,10.31,12.94,12.62,3.72,1.37,7.66,2.03,12.03,2.03,2.2,0,4.51-.17,7.06-.52,6.26-.85,12.58-3.04,19.32-6.68.88,1.59,1.89,3.09,3.05,4.46,3.91,4.6,8.9,7.04,14.41,7.04,1.43,0,2.91-.17,4.39-.49.97-.21,1.94-.46,2.91-.7,1.11-.28,2.17-.54,3.18-.75,3.62-.73,6.56-2.68,8.48-5.58,5.25,2.76,11.14,4.53,17.98,5.4,1.5.19,3.02.29,4.51.29h0c4.8,0,9.54-1,14.07-2.97,1.8-.78,3.59-1.96,5.46-3.61,1.61-1.42,2.71-3.18,3.25-5.15,8.32,6.03,18.22,9.25,29.46,9.57.38.01.75.02,1.12.02h0c5.48,0,11.08-1.16,16.63-3.45,3.52-1.45,6.7-3.4,9.5-5.72,2.92,4.56,7.12,7.97,12.55,10.17,3.8,1.54,7.73,2.32,11.66,2.32h0c4.99,0,10.06-1.25,15.09-3.73,5.9-2.9,10.17-7.09,12.67-12.34,2.26,2.08,4.65,3.87,7.22,5.39,6.29,3.71,13.22,5.7,21.19,6.09.76.04,1.52.06,2.26.06,6.63,0,12.95-1.47,18.8-4.35,7.08-3.5,12-9.4,14.22-17.07.57-1.95.84-4.12.8-6.29-.11-5.54-2.9-9.98-7.64-12.18-.44-.2-.88-.38-1.31-.53-.09-1.26-.47-2.51-1.12-3.74,3.32-2.32,6.36-4.95,9.1-7.9ZM178.52,41.91c-.42.33-.75.63-1.11.86-7.31,4.64-14.16,9.86-20.48,15.79-.46.43-.95.86-1.31,1.37-.18.25-.12.67-.23,1.47.89-.54,1.43-.82,1.92-1.17,5-3.49,9.95-7.06,15.01-10.48,5.25-3.55,10.67-6.82,16.47-9.41,2.04-.91,4.17-1.65,6.28-2.4,4.59-1.64,8.87-.69,12.83,1.84,2.82,1.8,4.76,4.44,5.34,7.75.32,1.82.21,3.8-.12,5.64-.9,5.1-3.4,9.47-6.57,13.46-2.74-1.32-5.2-2.73-7.82-3.73-10.14-3.91-20.19-3.32-30.03,1.08-5.15,2.3-10.11,5-14.87,8.03-.53.34-1.07.65-1.82,1.11-.14-1.21-.25-2.26-.38-3.3-.63-5.12-2.12-9.94-5.56-13.89-1.64-1.89-3.68-3.43-5.61-5.19,10.99-9.44,23.63-12.55,38.06-8.81ZM134.1,46.7c.24-.38.56-.74.91-1.02,1.67-1.29,3.52-2.13,5.68-2.15.78,0,1.48.11,1.94.81-1.32,3.12-4.61,4.91-7.73,4.22-1.12-.25-1.41-.88-.81-1.87ZM68.85,130.11c-1.48,1.26-3.1,2.42-4.8,3.34-5.34,2.89-10.94,5.1-17.02,5.93-5.37.73-10.67.73-15.84-1.16-4.22-1.55-7.34-4.32-8.9-8.58-5.15-14.05-9.92-28.22-13.27-42.82-1.2-5.22-2.07-10.49-2.2-15.87-.09-3.81.21-7.58.97-11.32,1.42-7,5.43-12.08,11.51-15.61,5.4-3.14,11.31-4.83,17.45-5.68,5.5-.75,10.99-.73,16.49.15,5.88.94,10.95,3.49,15.29,7.46,8.42,7.71,13.19,17.35,14.37,28.66,1.45,13.83-4.78,23.99-15.85,31.54-2.01,1.37-4.49,2.05-6.77,3-1.74.73-3.52,1.38-5.27,2.07l.05.36c2.95-.42,5.91-.82,8.86-1.25,1.42-.21,2.84-.45,4.25-.75.73-.15,1.26.07,1.63.65.39.63.77,1.29,1.07,1.97,1.21,2.76,2.11,5.62,2.21,8.64.13,3.75-1.42,6.85-4.23,9.25ZM141.22,137.42c-1.11.97-2.34,1.9-3.68,2.48-4.79,2.08-9.8,2.84-15.01,2.17-5.7-.73-11.17-2.2-16.23-4.97-.5-.28-.97-.62-1.49-.88-1.31-.65-1.96-1.63-1.93-3.15.02-1.02-.19-2.06-.37-3.08-.15-.83-.35-1.68-1.28-2.43-.26,1.81-.39,3.44-.76,5.02-.46,1.95-1,3.9-1.75,5.76-.86,2.15-2.49,3.52-4.85,4-2.08.42-4.13,1.01-6.21,1.47-4.94,1.09-8.95-.53-12.16-4.31-1.5-1.76-2.66-3.74-3.49-5.87.11-.22.15-.41.26-.53,5.54-5.61,6.5-12.19,4.08-19.45-.71-2.11-1.66-4.14-2.57-6.4,2.86-2.66,5.47-5.86,7.88-9.23,3.36-4.69,5.41-9.89,5.99-15.62.55-5.44.04-10.81-1.47-16.06-.63-2.19-1.44-4.34-2.19-6.59.27-.13.51-.28.77-.36,8.96-2.56,17.91-5.18,27.11-6.77,5.96-1.03,11.98-1.59,18.02-.51,4.33.77,8.29,2.3,11.53,5.42,3.3,3.18,4.97,7.16,5.7,11.56,1.19,7.19.17,14.21-1.9,21.13-1.6,5.36-3.96,10.29-7.65,14.55-3.41,3.95-7.69,6.73-12.19,9.21-5.78,3.18-11.97,5.33-18.26,7.22-.48.14-.96.29-1.43.44,3.05.41,6.01.03,8.93-.57,2.81-.58,5.58-1.37,8.37-2.07.5-.13.99-.3,1.5-.42,1.28-.3,2.43-.15,3.6.59,4.4,2.78,8.49,5.93,11.97,9.82,1.04,1.16,1.93,2.42,2.31,3.99.42,1.71.16,3.28-1.15,4.43ZM193.57,137.22c-4.8,1.98-9.78,3.07-14.97,2.93-9.8-.28-18.84-2.98-26.68-9.03-3.35-2.58-6.03-5.84-8.6-9.18-.53-.68-1.08-1.35-1.6-2.04-1.1-1.47-2.64-2.26-4.37-1.82-2.63.67-4.35-.68-6.06-2.12,2.6-2.07,5.19-4.13,7.75-6.17.67.59,1.33,1.33,2.13,1.85,3.42,2.24,8.14,1.61,10.82-1.53,1.03-1.21,1.75-2.69,2.53-4.09.2-.36.21-.9.14-1.34-.16-1.01-.82-1.35-1.76-.93-.84.38-1.61.91-2.47,1.22-2.22.83-5.03-1.07-5.08-3.43-.01-.42.21-.89.42-1.28,2.53-4.7,4.17-9.72,5.22-14.94.15-.75.45-1.36.98-1.95,1.3-1.45,2.48-3.01,3.74-4.51,1.18-1.41,2.75-2.02,4.54-2.19,2.08-.2,2.79-.91,3.1-2.99.1-.66.23-1.31.39-2.18.54.31.9.44,1.17.69,1.13,1.02,2.47,1.28,3.87.89,1.88-.53,3.76-1.1,5.55-1.86,3.12-1.32,6.3-2.21,9.71-2.03,1.09.06,2.17.21,3.25.4.67.12,1.36.34,1.57,1.23-.35.81-1.21.93-1.93,1.21-.68.27-1.38.48-2.49.87.94.6,1.5,1.07,2.14,1.34,2.11.87,4.26.83,6.4.03,2.03-.76,3.77-1.93,5.27-3.5,1.41-1.47,2.49-1.38,3.96-.01.79.74,1.68,1.45,2.66,1.87.96.41,1.41,1.07,1.79,1.93,2.23,5.02,2.35,10.16.74,15.33-.52,1.67-.5,3.1.26,4.63.94,1.91,1.85,3.84,2.64,5.81.53,1.32.98,2.71,1.22,4.12,2.51,14.73-5.75,27.74-17.95,32.77ZM253.36,123.97c-.56,7.69-4.56,13.11-11.4,16.47-6.89,3.39-13.96,4.14-21.2,1.21-5.2-2.1-9.01-5.64-11.14-10.99,2.47-3.3,4.34-6.9,5.66-10.9,7.3,1.42,14.5,2.83,21.87,2.24.03-.14.06-.27.09-.41-.33-.14-.64-.34-.98-.41-3.71-.79-7.45-1.48-11.14-2.36-2.51-.6-4.97-1.44-7.44-2.2-.48-.15-.93-.42-1.34-.61.08-2.45.22-4.8.21-7.15-.03-4.2-.73-8.24-2.91-11.93-.64-1.07-1.06-2.27-1.7-3.67.81,0,1.41.01,2.01,0,3.6-.08,6.92-2.9,7.56-6.43.05-.28.14-.57.11-.85-.06-.64-.43-.95-1.07-.71-.42.16-.81.42-1.19.67-.34.22-.63.51-.98.7-2.08,1.12-4.21-.05-4.31-2.4-.06-1.44.03-2.88-.03-4.32-.05-1.26-.13-2.53-.35-3.77-.45-2.51-2-4.2-4.41-5.29.73-1.01,1.43-1.98,2.12-2.95,2.9-4.15,5.06-8.64,5.99-13.65.2-1.06.72-1.52,1.69-1.87,7.35-2.64,14.93-3.22,22.64-2.48,12.06,1.16,23.39,4.85,34.28,10.03,1.97.94,3.94,1.89,5.87,2.93,2.14,1.16,4.07,2.62,5.68,4.46,2.75,3.15,3.28,7.22,1.24,10.74-6.33,10.91-13.87,20.9-22.66,29.94-.96.99-2.03,1.87-3.09,2.75-1.62,1.35-3.46,1.79-5.49,1.14-3.23-1.03-6.43-2.2-9.69-3.13-3.37-.96-6.76-1.86-10.2-2.52-2.6-.5-5.28-.36-7.9.17-.21.04-.4.16-.86.35,4.63.95,8.97,1.79,13.3,2.73,2.5.55,4.83,1.54,6.83,3.18,3.57,2.93,4.7,6.88,4.38,11.28ZM293.74,103.12c-1.62.54-3.34.78-5.17,1.19,1.15.83,2.43,1.03,3.75,1.04,3.55.02,6.95-.88,10.32-1.88,1.97-.58,2.05-.61,2.95.6,1,1.32,1.06,2.27.1,3.62-.43.6-.95,1.16-1.53,1.62-2.99,2.41-6.36,4.1-10.09,5.08.99.65,1.1.75,2.25.71,3.83-.12,7.4-.97,10.29-3.71.29-.27.83-.49,1.19-.42,1.29.26,2.63.49,3.81,1.03,2.56,1.19,3.65,3.45,3.71,6.16.03,1.42-.13,2.89-.53,4.25-1.69,5.83-5.24,10.17-10.71,12.87-5.58,2.76-11.49,3.91-17.72,3.6-6.44-.31-12.49-1.87-18.06-5.15-3.86-2.28-7.14-5.24-9.99-8.67-.31-.37-.56-.88-.62-1.36-.34-2.43-.62-4.88-.94-7.46.88,0,1.95.11,2.99-.02,2.82-.34,5.25-1.64,7.49-3.31,2.87-2.15,5.46-4.6,7.59-7.49,4.97-6.71,9.95-13.4,14.86-20.16,1.66-2.28,3.04-4.76,3.93-7.46,1.71-5.24.67-9.86-3.15-13.85-2.97-3.09-6.63-5.16-10.48-6.87-4.78-2.12-9.65-4.04-14.48-6.05-.21-.09-.39-.22-.82-.45.66-.39,1.17-.71,1.69-.99,5.54-2.9,11.42-4.45,17.67-4.82,6.44-.37,12.65.48,18.48,3.28,10.24,4.92,16.5,13.01,18.64,24.17.58,3.01.46,6.09-.28,9.09-.75,3.05-2.62,5.47-4.72,7.73-6.21,6.69-13.81,11.22-22.42,14.07Z"/><path class="cls-1" d="M194.17,121.72c-3.97,1.26-8.03,1.97-12.2,2.01-2.4.02-4.8-.01-7.11-.55-.57-1.37-.85-2.83-2.8-3.5.2,1.29.45,2.23.47,3.19.03,1.02-.16,2.05-.24,3.08-.07.9-.76,1.77-.14,3.01.85-.92,1.57-1.69,2.34-2.52.16.01.39,0,.61.05,4.09.91,8.21.95,12.33.27,2.79-.45,5.5-1.21,8.08-2.38,1.19-.54,2.28-1.26,2.77-2.87-.73-.09-1.33-.26-1.92-.22-.74.05-1.49.21-2.19.43Z"/><path class="cls-1" d="M166.36,109.17c-.84,0-1.54.75-1.47,1.56.07.77.75,1.32,1.56,1.27.82-.05,1.4-.66,1.37-1.46-.03-.8-.63-1.37-1.46-1.37Z"/><path class="cls-1" d="M173.28,113.7c-.04-.81-.82-1.49-1.61-1.41-.73.08-1.33.79-1.29,1.54.03.74.72,1.43,1.43,1.43.78,0,1.51-.77,1.47-1.56Z"/><path class="cls-1" d="M115.06,190.68c0,.97-.03,1.7,0,2.43.13,2.81.3,5.62.39,8.44.05,1.42-.45,2.67-1.55,3.86-.69-.54-1.3-1.03-1.86-1.46-.12.98-.16,2.06-.41,3.1-.16.7-.41,1.54-1.29,1.68-.93.14-1.25-.72-1.62-1.33-.47-.78-.85-1.64-1.16-2.5-.75-2.11-1.45-4.24-2.21-6.5h-2.8c-.68,2.76-1.36,5.6-2.86,8.42-.18-.46-.34-.71-.39-.99-1.08-5.77-.75-11.57-.2-17.36.28-2.87.39-5.73-.27-8.58-.43-1.85-.19-2.35,1.11-2.74,1.61-.49,2.56-.08,3.18,1.42,2.2,5.32,4.22,10.7,5.82,16.23.59,2.03,1.23,4.05,1.92,6.32.72-1.25.52-2.36.39-3.38-.7-5.78.02-11.48.84-17.18.06-.4.34-.77.66-1.47,1.47,2.96,1.71,5.88,2.32,8.63.21.04.34.1.42.07,3.36-1.47,2.9-.7,2.63-4.31-.09-1.15-.05-2.3-.15-3.44-.07-.85-.25-1.7-.42-2.54-.21-1.08-.08-1.34.89-1.7,2.16-.79,3.42.03,3.63,2.41.14,1.54.14,3.1.29,4.64.24,2.46.43,4.93.84,7.36.79,4.71.24,9.28-1.09,13.8-.08.26-.25.49-.48.91-1.25-2.31-.76-4.74-1.26-6.97-.49-2.24-.84-4.51-1.27-6.93-1.25-.11-2.49-.21-4.07-.35ZM104.46,195.7c-.41-1.58-.74-2.88-1.08-4.17l-.3.05c-.12,1.12-.24,2.25-.36,3.43.56.22,1,.4,1.74.7Z"/><path class="cls-1" d="M241.94,184.92c2.06-.67,4.12-1.34,6.19-2.01.6-.19,1.21-.38,1.83-.52,2.38-.57,4.17.3,5.24,2.52,1.24,2.58,1.23,5.27.43,7.92-1.65,5.44-4.47,10.22-8.72,14.05-1.1.99-2.39,1.81-3.69,2.54-1.65.93-3.12.48-4.2-1.06-1.11-1.58-1.57-3.36-1.27-5.24.62-3.8,1.81-7.39,4.4-10.35.7-.8,1.62-1.46,2.55-2,.56-.32,1.32-.4,1.99-.38.97.02,1.49.54,1.54,1.51.15,3.23-.96,6.06-2.76,8.69-1.57-.28-1.31-1.63-1.8-2.97-1.26,2.51-2.1,4.7-2.12,7.39,1.85-.66,3.08-1.78,4.22-2.96,2.26-2.34,4-5.05,5.44-7.95.78-1.57,1.12-3.27,1.1-5.02-.02-1.75-.78-2.31-2.43-1.79-2.25.71-4.5,1.43-6.68,2.33-1.64.67-3.13,1.69-4.74,2.44-2.04.95-3.25.76-4.4-.5-1.43-1.57-1.74-3.51-.79-5.25.27-.5.6-.99.98-1.41,3.54-3.9,7.81-6.38,13.15-6.84.17-.01.34-.05.52-.05.64,0,1.4-.05,1.62.67.23.79-.22,1.43-.94,1.85-1.94,1.13-3.87,2.27-5.81,3.41-.34.2-.65.44-.97.66.05.11.09.22.14.33Z"/><path class="cls-1" d="M185.15,206.71c-1.75-.96-2.54-2.28-2.62-4.02-.11-2.64-.22-5.28-.24-7.92-.04-4.77-.01-9.54-.01-14.17.49-.36.95-.64,1.35-1,1.04-.95,2.2-1.63,3.56-2.01,2.59-.71,5.21-.88,7.86-.51,1.88.26,2.26.96,1.46,2.72-.55,1.2-1.26,2.32-1.9,3.47-.19.34-.37.68-.63,1.15.5-.03.83-.04,1.16-.07.51-.03,1.04-.17,1.54-.09,3.4.52,4.41,1.78,3.58,5.17-.78,3.16-2.78,5.51-5.16,7.58-2.17,1.88-4.38,3.72-6.63,5.51-1.05.84-2.06,1.64-2.5,2.98-.13.41-.49.75-.81,1.22ZM196.22,189.09c-3.34.18-6.45,1.1-9.48,2.29-.35.14-.73.82-.7,1.23.12,2.05.36,4.08.57,6.19,1.69-.96,9.05-8.39,9.61-9.71ZM190.76,181.75c-2.6.47-4.67,1.42-6.47,2.96.21.78.39,1.41.57,2.06,2.51-1.03,4.67-2.86,5.91-5.03Z"/><path class="cls-1" d="M87.09,188.29c-1.04,4.38-.78,8.4.56,12.6,2.47-1.65,4.08-3.63,4.73-6.34.33-1.4,1.44-2.2,2.85-2.04,1,.11,1.52.65,1.4,1.78-.28,2.8-1.15,5.43-2.99,7.59-1.22,1.44-2.64,2.72-4.09,3.94-1.31,1.1-2.2.99-3.56-.08-1.36-1.07-2.23-2.46-2.7-4.11-.9-3.12-1.13-6.32-1.01-9.55.04-1.03,0-2.06,0-2.85-.8-.76-1.43-1.36-2.19-2.08.63-.29.97-.54,1.34-.61,1.5-.29,2.19-1.27,2.58-2.67.58-2.08,1.83-3.69,3.73-4.77,1.53-.87,3.21-1.25,4.93-1.43,1.14-.12,2.02.4,2.64,1.33,1.49,2.24,2.24,4.79,2.82,7.37.27,1.21-.41,2.38-1.19,3.31-.27.32-.94.48-1.39.43-1.7-.22-3.4-.52-5.08-.87-1.06-.22-2.08-.58-3.38-.95ZM88.92,184.78c1.62.12,2.91.22,4.4.33-.31-.95-.53-1.64-.75-2.32-1.56-.1-2.62.5-3.65,1.99Z"/><path class="cls-1" d="M143.79,177.63c-.09.56-.18.84-.17,1.11.23,5.71-.75,11.35-1.09,17.03-.19,3.15-.43,6.31-.66,9.46-.1,1.35-.45,2.59-1.7,3.43-1.73-.94-2.51-2.38-2.39-4.27.26-4.19.47-8.38.88-12.55.31-3.14.87-6.26,1.38-9.38.12-.73.46-1.42.71-2.12.23-.64.48-1.26.77-2.01-2.11-.25-3.93.15-5.71.86-1.74.69-3.5,1.15-5.38.58-.33-.1-.67-.19-.97-.35-.84-.45-1.08-1.1-.49-1.83.52-.65,1.2-1.28,1.94-1.62,3.58-1.65,7.34-2.64,11.3-2.85,2.7-.14,5.39-.36,8.08-.6,1.03-.09,2.04-.35,3.05-.53.74-.13,1.47-.31,2.21-.39,1.52-.17,2.96.6,3.07,1.59.17,1.59-1.13,3.15-2.75,3.33-.74.08-1.47.27-2.21.35-2.39.27-4.79.54-7.19.76-.85.08-1.71.01-2.7.01Z"/><path class="cls-1" d="M73,181.26c3.14-2.61,6.22-5.09,9.22-7.68,1.08-.93,2.17-1.69,3.58-1.92,1.76-.28,2.32.28,1.83,1.94-.21.7-.52,1.45-1.01,1.96-1.74,1.82-3.53,3.6-5.41,5.28-1.5,1.34-3.12,2.54-4.73,3.74-.84.63-1.09,1.39-.97,2.39.52,4.39,1.05,8.78,1.51,13.18.15,1.42.23,2.87.12,4.28-.08.99-.27,2.32-1.42,2.52-1.34.23-1.67-1.18-2.15-2.1-.31-.59-.43-1.31-.52-1.99-.59-4.67-1.21-9.34-1.7-14.03-.22-2.09-.74-3.9-2.48-5.26-2.12-1.66-4.14-3.45-6.29-5.08-1.06-.8-1.82-1.73-2.24-2.96-.27-.79.02-1.33.79-1.65,1.21-.5,2.43-.46,3.45.32,2.36,1.83,4.65,3.74,6.95,5.63.47.39.89.84,1.49,1.41Z"/><path class="cls-1" d="M227.32,208.1c-1.79-.98-2.38-2.47-2.56-4.21-.6-6.12-1.23-12.24-1.78-18.37-.12-1.32-.56-2.24-1.7-2.97-2.13-1.37-4.17-2.87-6.26-4.31-.73-.5-1.37-1.05-1.4-2.06.51-.67,1.17-.5,1.86-.39,3.2.52,5.95,2.09,8.72,3.61.5.27.99.56,1.46.83.23-.09.43-.11.54-.22,3.08-3.11,6.92-5.13,10.54-7.46,1.12-.72,2.34-.94,3.63-.74.92.15,1.09.46,1.03,1.42-.1,1.7-.93,2.87-2.4,3.73-3.57,2.1-7.08,4.29-10.3,6.92-1.07.87-1.44,1.75-1.29,3.1.5,4.45.93,8.92,1.33,13.38.13,1.37.11,2.76.14,4.14.03,1.39-.46,2.57-1.58,3.59Z"/><path class="cls-1" d="M161.55,189.27c-1.61,4.4-1.05,10.48,1.24,12.56,1.9-2.3,3.74-4.64,5.3-7.19.27-.44.52-.9.78-1.34.31-.53.77-1.04,1.37-.69.32.19.54.89.47,1.3-.22,1.24-.43,2.52-.96,3.64-1.1,2.34-2.33,4.62-3.64,6.85-1.66,2.82-4.36,2.94-6.48.42-1.72-2.03-2.25-4.49-2.55-7.03-.41-3.46-.14-6.91.42-10.31.6-3.71,2.87-6.49,5.76-8.73,1.93-1.49,4.57-1.11,5.93.95,1.1,1.66,1.9,3.54,2.62,5.41.28.72.09,1.72-.14,2.52-.49,1.71-.85,1.87-2.6,1.7-.63-.06-1.26-.08-1.89-.08-1.83,0-3.66,0-5.63,0ZM162.65,185.47c1.08-.23,1.85-.38,2.62-.56.76-.17,1.51-.37,2.39-.58-.48-1.15-.6-2.26-1.75-2.91-1.34,1.04-2.54,2.11-3.26,4.05Z"/><path class="cls-1" d="M218.32,187.53c-.27,1.05-.42,2.15-.83,3.15-1.44,3.5-2.84,7.03-4.5,10.43-1.12,2.3-2.94,4.1-5.3,5.26-1.94.96-2.9.72-3.95-1.21-.51-.94-.93-1.99-1.14-3.04-.38-1.91-.63-3.86-.83-5.8-.77-7.39,3.49-12.12,9.96-13.13,1-.16,2.07-.24,3.05-.05,2.13.42,3.43,2.2,3.54,4.39ZM206.4,202.12c3.01-1.65,7.56-9.93,7.75-13.93-1.13-.53-2.24-.25-3.32.16-2.42.92-4.04,2.79-5.46,4.84-.21.3-.31.78-.25,1.14.39,2.55.83,5.09,1.28,7.79Z"/><path class="cls-1" d="M154.32,205.58c-2.03-1.12-2.73-2.78-2.71-4.92.04-3.1-.04-6.2-.04-9.31,0-.74-.44-1.1-1.03-1.15-.64-.06-1.29.11-1.82.16,0,3.99-.02,7.72.01,11.45.01,1.2-.3,2.28-.93,3.26-.46.72-.92.75-1.55.17-1.14-1.05-1.47-2.43-1.5-3.91-.07-3.22-.15-6.43-.22-9.65-.08-3.75.61-7.41,1.17-11.11,1.01-.11,1.21.48,1.35,1.11.34,1.52.66,3.04.98,4.55.12.55.24,1.1.36,1.67,3.45-1.31,3.45-1.32,3.78-4.72.11-1.14.2-2.29.37-3.43.06-.4.32-.76.49-1.14.14,0,.27,0,.41,0,.19.43.46.85.55,1.31.93,4.56,2.2,9.06,1.91,13.8-.13,2.18.06,4.37.05,6.56,0,1.86-.24,3.68-1.65,5.3Z"/><path class="cls-1" d="M273.5,194.85c-.15-.51-.44-1.03-.43-1.54.03-1.89.1-3.78.26-5.66.19-2.4.43-4.8.74-7.18.31-2.39.43-4.87,1.2-7.12.74-2.17,1.26-4.24,1.02-6.51-.03-.32.08-.7.23-1,.73-1.48,1-3.05,1.03-4.67.02-.87.41-1.37,1.29-1.56.92-.2,1.86-.43,2.57.36.26.28.33.86.28,1.27-.23,1.88-.54,3.75-.81,5.63-.11.73-.16,1.48-.28,2.21-.26,1.58-.37,3.2-.85,4.71-1.02,3.2-1.59,6.47-1.84,9.79-.12,1.57-.36,3.07-1,4.51-.99,2.25-1.96,4.5-2.94,6.76-.16,0-.31,0-.47.01Z"/><path class="cls-1" d="M264.39,193.91c-.85-1.45-.8-3.01-.76-4.53.07-2.99.21-5.97.46-8.95.28-3.43.71-6.85,1.09-10.27.04-.4.1-.81.22-1.18.74-2.18,1.16-4.4,1.27-6.72.07-1.39.71-2.04,1.79-2.19,1.55-.22,2.66.08,2.52,2.02-.18,2.46-.29,4.9-1.06,7.3-.59,1.83-.7,3.82-1.02,5.74-.04.22.02.46-.01.69-.71,4.47-1.16,9-3.26,13.13-.43.85-.64,1.83-.88,2.77-.18.72-.24,1.46-.36,2.19Z"/><path class="cls-1" d="M271.82,199.31c2.05.03,3.03,1.35,2.45,3.31-.45,1.5-1.55,2.78-2.42,2.57-1.34-.32-1.79-1.53-2.11-2.69-.57-2.02.25-3.21,2.09-3.19Z"/><path class="cls-1" d="M262.96,199.45c1.28.23,1.64.53,1.48,1.64-.12.9-.37,1.81-.77,2.62-.56,1.15-1.79,1.17-2.44.08-.63-1.06-.62-2.28-.08-3.3.28-.52,1.18-.7,1.8-1.04Z"/></g></svg>