<svg xmlns="http://www.w3.org/2000/svg" version="1.1" xmlns:xlink="http://www.w3.org/1999/xlink" xmlns:svgjs="http://svgjs.dev/svgjs" viewBox="0 0 600 600"><path d="M112.76223808235409 405.9440665878653C95.10489580737037 428.8461661972403 110.83916399584695 461.0140027044017 128.49650627083065 475.17484051364653C146.15384854581436 489.33567832289134 167.65734026537817 490.3846183456778 218.70629173225643 490.90909344333403C269.7552431991347 491.4335685409903 384.96504010465225 491.08392864841215 434.7902150721002 478.32169109958403C484.6153900395481 465.5594535507559 509.96503501838924 437.58741782484447 517.6573415369439 414.3356681503653C525.3496480554986 391.0839184758861 507.8671295415012 352.0979056991934 480.9440541834283 338.81119305270903C454.02097882535537 325.52448040622465 397.20280509895565 334.7902173040111 356.11888938850643 334.61539227145903C315.0349736780572 334.44056723890697 275.00000180509176 325.87413047132884 234.440559920733 337.76224285739653C193.88111803637426 349.6503552434643 130.4195803573378 383.0419669784903 112.76223808235409 405.9440665878653C95.10489580737037 428.8461661972403 110.83916399584695 461.0140027044017 128.49650627083065 475.17484051364653 " fill="url(&quot;#ssshape-pattern2&quot;)"></path><defs><pattern id="ssshape-pattern2" width="76" height="76" viewBox="0 0 40 40" patternUnits="userSpaceOnUse" patternTransform="scale(6) rotate(56)">
  <rect width="100%" height="100%" fill="hsl(0, 0%, 100%)"></rect>
  <path d="M0 20v20l14-20L20 0l-20 20zM20 20v20l14-20L40 0l-20 20z" fill="hsl(352, 64%, 81%)" fill-opacity="0.5"></path>
  <path d="M0 40v-20l20-20l-10 20zM20 40v-20l20-20l-10 20zM20 20v20l-20 20l9-20zM20-20v20l-20 20l9-20zM40 20v20l-20 20l9-20zM40-20v20l-20 20l9-20z" fill="hsl(352, 64%, 81%)"></path>
</pattern></defs></svg>