<svg xmlns="http://www.w3.org/2000/svg" version="1.1" xmlns:xlink="http://www.w3.org/1999/xlink" xmlns:svgjs="http://svgjs.dev/svgjs" viewBox="0 0 600 600"><path d="M89.83803159730633 430.5966916913289C72.1806893223226 453.4987913007039 87.91495751079918 485.6666278078653 105.57229978578289 499.82746561711014C123.2296420607666 513.9883034263542 144.7331337803304 515.0372434491408 195.78208524720867 515.561718546797C246.83103671408696 516.086193644453 362.0408336196045 515.7365537518751 411.8660085870524 502.97431620304764C461.69118355450036 490.2120786542195 487.0408285333415 462.24004292830807 494.73313505189617 438.9882932538289C502.42544157045086 415.7365435793497 484.9429230564534 376.750530802657 458.01984769838054 363.46381815617264C431.0967723403076 350.17710550968826 374.2785986139079 359.4428424074747 333.19468290345867 359.26801737492264C292.11076719300945 359.09319234237057 252.075795320044 350.52675557479245 211.51635343568523 362.41486796086014C170.9569115513265 374.3029803469279 107.49537387229003 407.6945920819539 89.83803159730633 430.5966916913289C72.1806893223226 453.4987913007039 87.91495751079918 485.6666278078653 105.57229978578289 499.82746561711014 " fill="url(&quot;#ssshape-pattern2&quot;)" stroke-width="0" stroke="hsl(340, 45%, 30%)" transform="matrix(1.477455443789063,0,0,1.477455443789063,-131.38624220172926,-209.42677025975166)"></path><defs><pattern id="ssshape-pattern2" width="76" height="76" viewBox="0 0 40 40" patternUnits="userSpaceOnUse" patternTransform="scale(6) rotate(56)">
  <rect width="100%" height="100%" fill="hsl(0, 0%, 100%)"></rect>
  <path d="M0 20v20l14-20L20 0l-20 20zM20 20v20l14-20L40 0l-20 20z" fill="hsl(352, 64%, 81%)" fill-opacity="0.5"></path>
  <path d="M0 40v-20l20-20l-10 20zM20 40v-20l20-20l-10 20zM20 20v20l-20 20l9-20zM20-20v20l-20 20l9-20zM40 20v20l-20 20l9-20zM40-20v20l-20 20l9-20z" fill="hsl(352, 64%, 81%)"></path>
</pattern></defs></svg>