<?xml version="1.0" encoding="UTF-8"?><svg id="Layer_2" xmlns="http://www.w3.org/2000/svg" viewBox="0 0 393.73 239.3"><defs><style>.cls-1{fill:#3d3b56;stroke-width:0px;}</style></defs><g id="Artwork"><path class="cls-1" d="M71.62,158.45c2.14-1.15,4.16-2.6,6.01-4.18,3.52-3,5.45-6.89,5.29-11.57-.13-3.78-1.26-7.36-2.77-10.81-.37-.85-.84-1.67-1.34-2.46-.46-.74-1.12-1.01-2.04-.82-1.76.37-3.53.67-5.31.93-3.69.55-7.39,1.05-11.08,1.57-.02-.15-.04-.3-.06-.45,2.2-.86,4.42-1.68,6.6-2.59,2.85-1.19,5.96-2.04,8.47-3.75,13.85-9.45,21.64-22.16,19.83-39.46-1.48-14.15-7.44-26.21-17.98-35.85-5.43-4.97-11.77-8.16-19.13-9.34-6.88-1.1-13.76-1.13-20.63-.18-7.69,1.06-15.07,3.18-21.83,7.1-7.61,4.42-12.61,10.77-14.4,19.53C.28,70.78-.1,75.5.02,80.26c.17,6.72,1.25,13.32,2.75,19.85,4.2,18.27,10.16,36,16.6,53.57,1.96,5.33,5.85,8.79,11.14,10.73,6.46,2.37,13.1,2.37,19.81,1.45,7.6-1.04,14.61-3.81,21.29-7.42ZM28.54,133.72c-1.08-1.34-1.04-2.55-.54-3.81,1.34-3.33,2.7-6.65,4.15-10.23-.63-.37-1.48-.88-2.33-1.37-2.14-1.22-4.18-2.56-5.78-4.47-1.61-1.92-1.8-4.68-.48-6.8.95-1.54,2.24-2.06,4.03-1.57,3.61,1,6.67,2.99,9.54,5.31.27.22.53.46.88.77.9-.99,1.75-1.94,2.63-2.86,2.09-2.19,4.73-3.34,7.68-3.45,3.08-.12,4.45,1.49,3.38,4.78-.74,2.27-2.16,4.22-4.17,5.65-1.17.83-2.36,1.63-3.67,2.54.26.52.49,1.01.75,1.49,1.47,2.72,2.96,5.43,4.43,8.15.27.51.53,1.03.72,1.56.26.71.89,1.5.13,2.18-.89.79-1.8.12-2.56-.34-.52-.32-.88-.93-1.28-1.44-2.32-2.89-5.11-5.21-8.48-7.17-3.6,3.18-5.68,7.56-9.05,11.07ZM45.22,152.13c-2.42,1.88-2.91,5.12-5.97,6.55-.83-3.3.78-6.05,1.18-9.05-1.2-.51-2.41-.96-3.56-1.52-2.12-1.04-2.55-2.88-1.17-4.77.8-1.09,1.94-1.2,3.1-.82,1.35.44,2.66,1.01,4.11,1.56.41-.62.85-1.26,1.25-1.92.96-1.6,2.45-2.4,4.2-2.75,1.87-.38,3.03.64,3.08,2.55.05,1.67-.63,3.07-1.53,4.4-.48.71-1.01,1.39-1.61,2.2,1.44,2.3,3.94,4.12,4.12,7.16-1.13,1-2,.66-2.93-.13-1.4-1.2-2.86-2.33-4.27-3.46Z"/><path class="cls-1" d="M160.27,52.26c3.9.86,8.01-1.38,9.67-5.28-.58-.88-1.46-1.03-2.43-1.02-2.7.03-5.02,1.08-7.11,2.69-.45.34-.85.79-1.14,1.27-.76,1.23-.39,2.03,1.01,2.34Z"/><path class="cls-1" d="M163.55,166.52c1.67-.73,3.22-1.89,4.61-3.1,1.64-1.44,1.97-3.41,1.44-5.55-.48-1.96-1.59-3.54-2.89-4.99-4.36-4.87-9.47-8.8-14.98-12.29-1.47-.93-2.91-1.12-4.51-.74-.63.15-1.24.37-1.87.52-3.49.88-6.95,1.87-10.47,2.6-3.65.76-7.36,1.24-11.17.72.6-.18,1.19-.37,1.79-.55,7.87-2.37,15.62-5.05,22.84-9.04,5.63-3.11,10.99-6.59,15.25-11.53,4.61-5.33,7.57-11.5,9.57-18.21,2.58-8.66,3.86-17.43,2.37-26.43-.91-5.51-3.01-10.49-7.14-14.46-4.05-3.91-9.01-5.82-14.43-6.78-7.56-1.34-15.09-.65-22.55.64-11.5,1.99-22.7,5.27-33.91,8.47-.33.09-.63.29-.96.45.94,2.81,1.95,5.49,2.74,8.24,1.9,6.57,2.53,13.3,1.84,20.1-.72,7.17-3.29,13.68-7.49,19.54-3.02,4.21-6.28,8.22-9.86,11.54,1.14,2.82,2.33,5.36,3.21,8.01,3.03,9.08,1.82,17.31-5.1,24.33-.14.14-.19.38-.33.66,1.05,2.66,2.5,5.13,4.37,7.34,4.02,4.73,9.03,6.75,15.21,5.39,2.6-.57,5.16-1.31,7.77-1.84,2.95-.59,4.99-2.31,6.06-5,.93-2.32,1.61-4.76,2.18-7.2.47-1.97.62-4.02.95-6.28,1.17.94,1.42,2,1.61,3.04.22,1.27.48,2.57.46,3.85-.04,1.9.78,3.13,2.42,3.94.64.32,1.23.75,1.86,1.1,6.34,3.47,13.18,5.31,20.31,6.22,6.51.83,12.79-.12,18.78-2.72ZM114.08,141.52c-1.72-.67-3.35-1.58-5.08-2.42-2.37,2.67-3.28,6.05-5,9.15-.85-.86-1.36-1.56-1.31-2.59.15-3.07.26-6.15.39-9.43-1.55-.63-3.21-1.3-4.86-1.98-.53-.22-1.07-.42-1.59-.67-1.46-.7-1.99-1.38-1.84-2.34.17-1.08,1.52-2.39,2.74-2.36,1.35.03,2.71.24,4.02.55,1.1.26,2.14.77,3.18,1.16,1.05-1.66,2.01-3.26,3.05-4.8.88-1.3,2.16-2.13,3.67-2.49,2.19-.52,3.45.49,3.63,2.71.15,1.79-.37,3.42-1.09,5-.57,1.24-1.24,2.43-1.89,3.69,1.36,1.23,2.82,2.4,4.09,3.74,1.23,1.3,3.08,2.22,3.15,4.61-2.06.31-3.61-.89-5.27-1.54Z"/><path class="cls-1" d="M187.81,64.76c7.9-7.41,16.48-13.94,25.62-19.75.46-.29.86-.66,1.39-1.08-18.05-4.68-33.86-.79-47.61,11.02,2.41,2.2,4.96,4.13,7.01,6.5,4.3,4.94,6.16,10.97,6.95,17.38.16,1.31.3,2.61.47,4.13.93-.57,1.61-.96,2.27-1.38,5.96-3.8,12.16-7.17,18.61-10.05,12.31-5.5,24.89-6.24,37.57-1.35,3.27,1.26,6.35,3.02,9.78,4.67,3.96-4.99,7.09-10.46,8.22-16.83.41-2.3.55-4.78.15-7.06-.73-4.14-3.15-7.44-6.68-9.69-4.95-3.16-10.31-4.35-16.05-2.3-2.64.94-5.3,1.86-7.86,3-7.25,3.24-14.04,7.33-20.6,11.77-6.32,4.27-12.52,8.74-18.77,13.11-.61.43-1.28.78-2.4,1.46.14-.99.06-1.53.28-1.84.46-.63,1.07-1.17,1.64-1.71Z"/><path class="cls-1" d="M233.66,163.16c15.27-6.3,25.59-22.58,22.46-41-.3-1.75-.86-3.49-1.53-5.15-.99-2.47-2.12-4.88-3.31-7.27-.95-1.92-.97-3.71-.32-5.8,2.01-6.46,1.86-12.9-.93-19.17-.48-1.08-1.04-1.9-2.24-2.42-1.22-.52-2.34-1.42-3.32-2.34-1.84-1.71-3.19-1.82-4.95.02-1.88,1.96-4.06,3.42-6.6,4.38-2.68,1.01-5.36,1.06-8-.03-.8-.33-1.5-.92-2.68-1.67,1.39-.48,2.27-.75,3.12-1.09.9-.36,1.97-.5,2.41-1.52-.27-1.11-1.13-1.39-1.97-1.54-1.34-.24-2.7-.43-4.06-.5-4.27-.22-8.25.9-12.15,2.55-2.24.95-4.59,1.67-6.94,2.33-1.75.49-3.42.17-4.84-1.11-.34-.3-.79-.47-1.47-.86-.19,1.09-.36,1.91-.48,2.73-.39,2.6-1.28,3.49-3.88,3.74-2.24.22-4.21.98-5.68,2.74-1.57,1.87-3.05,3.82-4.68,5.64-.66.74-1.04,1.49-1.23,2.44-1.31,6.53-3.37,12.8-6.53,18.68-.26.49-.54,1.07-.53,1.6.07,2.95,3.58,5.33,6.36,4.29,1.07-.4,2.04-1.06,3.09-1.53,1.18-.53,2.01-.1,2.2,1.16.08.54.07,1.22-.18,1.67-.98,1.75-1.88,3.61-3.17,5.12-3.35,3.93-9.26,4.71-13.53,1.91-1.01-.66-1.84-1.58-2.67-2.32-3.2,2.55-6.44,5.13-9.7,7.72,2.14,1.8,4.29,3.48,7.59,2.65,2.15-.55,4.08.44,5.46,2.28.65.86,1.34,1.69,2,2.55,3.21,4.18,6.57,8.25,10.76,11.48,9.82,7.56,21.12,10.95,33.38,11.3,6.49.18,12.72-1.18,18.72-3.66ZM240.81,129.01c-1.09.05-1.76-.56-1.82-1.65-.06-1.08.56-1.84,1.57-1.93,1.09-.1,1.96.68,1.96,1.78,0,1.04-.68,1.76-1.72,1.81ZM246.66,121.18c-.04,1.05-.93,1.84-1.99,1.76-.99-.08-1.71-.87-1.68-1.84.03-1.05.92-1.84,1.98-1.76.98.08,1.72.89,1.69,1.84ZM239.04,87.02c2.88.23,5.08,1.62,6.76,4.41-.77.1-1.24.28-1.66.19-.98-.19-1.95-.49-2.91-.78-1.95-.59-3.9-.92-5.95-.55-.68.13-1.39.02-2.4.02,1.09-2.16,3.67-3.5,6.17-3.3ZM230.45,101.24c1.83-3.71,6.44-4.03,8.76-.59.82,1.22,1.3,2.56,1.16,4.04,0,.32.03.61,0,.9-.28,2.66-2.16,4.77-4.53,5.09-2.38.32-4.7-1.22-5.65-3.78-.71-1.91-.65-3.8.27-5.65ZM237.77,122.23c.02,1.07-.85,1.95-1.89,1.91-1.01-.04-1.67-.78-1.65-1.87.02-1.04.76-1.82,1.73-1.83.94,0,1.79.83,1.81,1.78ZM219.52,130.44c3.68-.61,7.29-1.5,10.82-2.7.21-.07.51.15.75.23-.26,2.38-2.28,4.65-4.76,5.21-2.84.64-5.44.21-7.87-1.94.52-.4.76-.74,1.06-.79ZM210.54,127.41c-.04,1.06-.71,1.64-1.85,1.61-1.14-.03-1.71-.63-1.68-1.76.03-1.1.68-1.77,1.72-1.78,1.11-.01,1.86.79,1.81,1.94ZM188.78,104.56c-1.27,1.08-2.25,2.54-4.01,3.07-.35-2.39,1.7-6.24,4.19-8.05,2.48-1.79,5.89-2.31,8.25-1.1-1.16,1.43-2.94,1.76-4.26,2.73-1.43,1.06-2.81,2.19-4.17,3.35ZM195.77,117.3c-.52-1.96-.28-2.35,3.84-6.11-1.5-.79-3.49-.11-4.95-1.75.59-.4,1.04-.84,1.58-1.06,2.8-1.16,5.69-1.45,8.62-.59,1.62.47,3.07,1.26,3.8,2.91.74,1.66.42,2.43-1.37,2.77-3.69.69-7.23,1.76-10.52,3.61-.29.16-.67.16-1,.23ZM199.74,131.61c-1.02.06-1.87-.63-1.96-1.59-.1-1.02.78-1.95,1.83-1.95,1.04,0,1.79.71,1.83,1.71.04,1-.68,1.77-1.71,1.83ZM204.64,133.91c-.04-.94.71-1.83,1.62-1.93.99-.11,1.96.75,2.02,1.76.05.99-.87,1.96-1.84,1.96-.89,0-1.75-.86-1.79-1.79ZM210.56,149.73c-.27-.06-.57-.05-.76-.07-.96,1.03-1.86,2-2.93,3.15-.78-1.55.08-2.63.18-3.77.1-1.28.33-2.57.3-3.85-.03-1.19-.34-2.38-.59-3.99,2.44.83,2.8,2.67,3.51,4.38,2.89.68,5.89.72,8.89.69,5.21-.05,10.29-.94,15.26-2.51.89-.28,1.82-.47,2.74-.54.74-.05,1.49.16,2.4.27-.61,2.01-1.98,2.91-3.46,3.59-3.22,1.46-6.62,2.41-10.11,2.98-5.16.84-10.31.79-15.43-.34Z"/><path class="cls-1" d="M309.24,31.33c-.52,1.31-.14,2.56.95,3.52,1.02.9,2.18,1.06,3.42.54.53-.22,1.03-.51,1.55-.76,6.16-2.97,12.26-6.06,18.49-8.85,5.45-2.43,11.07-4.49,16.59-6.76,3.73-1.53,7.47-3.02,11.12-4.74,2.96-1.39,3.36-3.22,1.46-5.92-1.07-1.52-2.32-2.93-3.56-4.33-2.49-2.81-5.61-4.19-9.31-4.02-3.16-.09-6.04.82-8.85,1.98-4.76,1.97-9.03,4.77-13.05,7.95-6.42,5.07-12.21,10.75-16.78,17.58-.8,1.19-1.49,2.47-2.02,3.8Z"/><path class="cls-1" d="M369.96,51.61c-7.29-3.5-15.05-4.57-23.11-4.1-7.82.45-15.18,2.4-22.1,6.03-.66.35-1.29.75-2.12,1.23.53.3.77.46,1.03.57,6.04,2.52,12.13,4.92,18.11,7.57,4.81,2.14,9.4,4.72,13.11,8.59,4.78,4.99,6.09,10.78,3.94,17.33-1.11,3.38-2.84,6.48-4.91,9.34-6.13,8.45-12.37,16.82-18.59,25.21-2.68,3.62-5.91,6.68-9.5,9.37-2.8,2.1-5.84,3.72-9.37,4.14-1.3.16-2.64.03-3.74.03.4,3.23.74,6.28,1.17,9.33.08.6.39,1.23.78,1.7,3.57,4.3,7.66,8,12.49,10.85,6.97,4.11,14.54,6.06,22.6,6.45,7.79.38,15.18-1.05,22.17-4.51,6.84-3.38,11.28-8.81,13.4-16.1.49-1.7.7-3.55.66-5.32-.07-3.38-1.43-6.21-4.64-7.7-1.47-.68-3.15-.97-4.76-1.29-.45-.09-1.13.19-1.49.53-3.62,3.43-8.09,4.5-12.88,4.64-1.44.04-1.58-.08-2.82-.89,4.67-1.22,8.88-3.34,12.62-6.35.72-.58,1.38-1.28,1.91-2.03,1.2-1.69,1.12-2.88-.13-4.53-1.13-1.51-1.23-1.48-3.69-.75-4.21,1.25-8.46,2.37-12.91,2.35-1.65,0-3.26-.25-4.69-1.3,2.29-.52,4.44-.82,6.47-1.49,10.78-3.57,20.27-9.23,28.05-17.61,2.62-2.82,4.96-5.85,5.9-9.67.93-3.75,1.08-7.61.35-11.37-2.68-13.97-10.51-24.09-23.32-30.24Z"/><path class="cls-1" d="M288.77,124.43c4.3.82,8.55,1.95,12.76,3.15,4.08,1.17,8.07,2.63,12.12,3.92,2.54.81,4.85.26,6.87-1.42,1.33-1.1,2.67-2.21,3.87-3.44,11-11.31,20.44-23.81,28.35-37.45,2.55-4.4,1.89-9.48-1.55-13.43-2.01-2.3-4.43-4.13-7.1-5.58-2.4-1.3-4.87-2.5-7.34-3.67-13.62-6.47-27.8-11.09-42.88-12.54-9.64-.93-19.12-.21-28.32,3.1-1.22.44-1.87,1.01-2.12,2.33-1.16,6.27-3.86,11.88-7.49,17.07-.86,1.22-1.74,2.43-2.65,3.7,3.02,1.37,4.95,3.48,5.52,6.62.28,1.55.38,3.14.44,4.72.07,1.8-.04,3.6.04,5.4.13,2.94,2.79,4.4,5.39,3,.44-.24.8-.61,1.22-.88.48-.31.96-.63,1.49-.83.79-.31,1.25.09,1.34.88.03.35-.07.71-.14,1.06-.8,4.41-4.96,7.94-9.46,8.04-.75.02-1.49,0-2.51,0,.8,1.75,1.33,3.25,2.13,4.59,2.73,4.62,3.61,9.68,3.65,14.93.02,2.94-.16,5.88-.26,8.94.51.24,1.07.58,1.67.76,3.09.95,6.17,2,9.31,2.75,4.62,1.1,9.29,1.96,13.94,2.95.42.09.82.34,1.22.51-.04.17-.07.34-.11.51-9.21.74-18.22-1.02-27.35-2.8-1.65,5.01-3.99,9.51-7.09,13.64,2.67,6.69,7.44,11.12,13.94,13.75,9.06,3.67,17.91,2.73,26.53-1.51,8.56-4.21,13.55-10.99,14.26-20.61.4-5.51-1.01-10.44-5.48-14.11-2.5-2.06-5.42-3.3-8.54-3.98-5.41-1.18-10.85-2.24-16.64-3.42.58-.24.82-.38,1.08-.43,3.28-.67,6.63-.83,9.88-.21Z"/><path class="cls-1" d="M126.93,215.26c0,1.22-.03,2.13,0,3.04.16,3.52.38,7.03.49,10.55.06,1.77-.56,3.34-1.94,4.83-.87-.68-1.63-1.28-2.33-1.83-.15,1.23-.21,2.58-.51,3.88-.2.87-.52,1.93-1.62,2.1-1.17.18-1.57-.9-2.02-1.66-.58-.98-1.06-2.05-1.45-3.12-.94-2.64-1.81-5.31-2.76-8.13h-3.5c-.85,3.46-1.7,7.01-3.58,10.53-.23-.57-.43-.89-.49-1.24-1.35-7.22-.94-14.47-.25-21.72.34-3.59.49-7.17-.33-10.73-.53-2.31-.24-2.94,1.38-3.43,2.02-.61,3.2-.09,3.97,1.77,2.75,6.65,5.28,13.38,7.28,20.3.74,2.54,1.54,5.07,2.4,7.91.9-1.56.65-2.95.49-4.22-.87-7.23.02-14.36,1.05-21.49.07-.5.43-.97.83-1.84,1.84,3.7,2.13,7.35,2.9,10.8.27.05.42.13.52.09,4.21-1.84,3.63-.88,3.29-5.39-.11-1.43-.07-2.88-.19-4.31-.09-1.07-.32-2.13-.52-3.18-.26-1.35-.1-1.68,1.11-2.12,2.7-.99,4.28.03,4.54,3.01.17,1.93.18,3.88.37,5.81.3,3.08.54,6.17,1.05,9.21.99,5.89.3,11.61-1.37,17.26-.09.32-.31.61-.6,1.14-1.56-2.89-.95-5.92-1.57-8.73-.62-2.8-1.04-5.65-1.59-8.67-1.56-.13-3.12-.27-5.09-.43ZM113.67,221.55c-.51-1.98-.93-3.6-1.35-5.22l-.38.06c-.15,1.41-.3,2.81-.45,4.29.7.28,1.26.5,2.18.87Z"/><path class="cls-1" d="M285.66,208.05c2.58-.84,5.16-1.68,7.74-2.51.75-.24,1.51-.47,2.28-.65,2.98-.71,5.22.38,6.55,3.15,1.55,3.23,1.54,6.6.53,9.91-2.06,6.81-5.6,12.78-10.91,17.57-1.38,1.24-2.99,2.26-4.61,3.17-2.06,1.16-3.9.61-5.26-1.32-1.39-1.98-1.97-4.21-1.58-6.56.77-4.75,2.27-9.25,5.5-12.95.88-1,2.03-1.83,3.19-2.5.69-.4,1.65-.49,2.49-.48,1.21.02,1.87.68,1.93,1.9.19,4.04-1.2,7.58-3.45,10.87-1.96-.36-1.64-2.03-2.25-3.71-1.58,3.14-2.63,5.88-2.65,9.24,2.32-.82,3.85-2.22,5.28-3.7,2.82-2.93,5.01-6.32,6.8-9.95.97-1.96,1.4-4.09,1.37-6.28-.03-2.19-.98-2.89-3.04-2.24-2.81.89-5.63,1.79-8.35,2.91-2.05.84-3.91,2.12-5.93,3.05-2.55,1.19-4.07.95-5.51-.63-1.79-1.97-2.18-4.4-.99-6.57.34-.63.75-1.24,1.23-1.77,4.42-4.88,9.78-7.99,16.45-8.55.22-.02.43-.06.65-.06.8,0,1.76-.07,2.02.84.29.99-.27,1.79-1.17,2.31-2.42,1.42-4.85,2.84-7.26,4.27-.42.25-.81.55-1.22.82.06.14.12.27.18.41Z"/><path class="cls-1" d="M214.61,235.31c-2.19-1.21-3.18-2.86-3.27-5.02-.14-3.3-.28-6.61-.3-9.91-.05-5.97-.01-11.93-.01-17.73.61-.45,1.19-.81,1.68-1.26,1.3-1.18,2.75-2.04,4.46-2.51,3.24-.89,6.52-1.1,9.83-.64,2.35.33,2.82,1.2,1.82,3.4-.68,1.5-1.58,2.9-2.38,4.35-.23.42-.47.85-.79,1.44.62-.04,1.04-.06,1.45-.08.64-.04,1.31-.21,1.93-.11,4.25.65,5.52,2.23,4.48,6.47-.97,3.95-3.48,6.9-6.45,9.48-2.71,2.36-5.48,4.65-8.29,6.89-1.32,1.05-2.58,2.05-3.13,3.73-.17.51-.62.94-1.02,1.52ZM228.46,213.27c-4.18.22-8.07,1.37-11.85,2.86-.44.17-.91,1.02-.88,1.53.15,2.56.46,5.11.72,7.75,2.11-1.2,11.32-10.5,12.02-12.15ZM221.64,204.09c-3.26.58-5.84,1.78-8.1,3.71.27.98.49,1.77.71,2.58,3.13-1.29,5.84-3.57,7.39-6.29Z"/><path class="cls-1" d="M91.95,212.27c-1.3,5.48-.98,10.51.7,15.76,3.09-2.07,5.11-4.54,5.91-7.93.42-1.75,1.8-2.75,3.56-2.55,1.25.14,1.9.81,1.76,2.22-.35,3.5-1.44,6.79-3.74,9.5-1.53,1.8-3.3,3.41-5.11,4.93-1.64,1.37-2.75,1.24-4.45-.1-1.71-1.34-2.79-3.08-3.38-5.15-1.12-3.91-1.41-7.9-1.27-11.94.05-1.29,0-2.58,0-3.56-1-.95-1.79-1.7-2.74-2.61.78-.37,1.21-.68,1.68-.77,1.88-.36,2.74-1.59,3.23-3.34.73-2.6,2.29-4.61,4.66-5.97,1.92-1.09,4.01-1.57,6.17-1.79,1.43-.15,2.53.51,3.3,1.66,1.86,2.8,2.8,6,3.52,9.22.34,1.52-.51,2.97-1.48,4.15-.33.4-1.18.61-1.74.53-2.13-.27-4.25-.65-6.36-1.08-1.32-.27-2.6-.72-4.23-1.18ZM94.22,207.88c2.02.15,3.64.28,5.51.42-.38-1.19-.66-2.05-.94-2.91-1.95-.12-3.27.63-4.57,2.49Z"/><path class="cls-1" d="M162.87,198.94c-.11.7-.22,1.05-.21,1.39.29,7.15-.94,14.2-1.36,21.3-.24,3.95-.54,7.89-.83,11.83-.12,1.69-.57,3.24-2.12,4.29-2.17-1.17-3.13-2.97-2.99-5.34.32-5.24.59-10.48,1.1-15.7.39-3.93,1.09-7.83,1.72-11.74.15-.91.57-1.77.89-2.65.29-.8.6-1.58.96-2.51-2.64-.32-4.92.18-7.14,1.07-2.17.87-4.38,1.44-6.73.72-.41-.13-.84-.24-1.21-.44-1.05-.56-1.35-1.38-.61-2.29.65-.81,1.5-1.6,2.43-2.03,4.48-2.07,9.19-3.3,14.14-3.56,3.37-.18,6.74-.45,10.1-.75,1.28-.12,2.55-.43,3.82-.66.92-.17,1.83-.39,2.76-.49,1.9-.21,3.71.75,3.84,1.99.22,1.99-1.42,3.94-3.43,4.16-.93.1-1.84.33-2.76.44-3,.34-5.99.67-8.99.95-1.06.1-2.14.02-3.37.02Z"/><path class="cls-1" d="M74.31,203.48c3.93-3.26,7.79-6.37,11.53-9.61,1.35-1.16,2.71-2.11,4.48-2.4,2.2-.35,2.9.35,2.28,2.42-.26.87-.65,1.82-1.26,2.46-2.18,2.28-4.42,4.51-6.77,6.61-1.87,1.68-3.91,3.17-5.92,4.68-1.05.79-1.36,1.74-1.21,2.99.65,5.49,1.31,10.98,1.89,16.49.19,1.77.28,3.59.14,5.36-.1,1.23-.33,2.9-1.78,3.15-1.67.29-2.09-1.48-2.7-2.63-.39-.74-.54-1.64-.65-2.48-.74-5.85-1.52-11.69-2.12-17.55-.27-2.62-.93-4.88-3.1-6.58-2.66-2.08-5.18-4.32-7.87-6.35-1.33-1-2.28-2.17-2.8-3.71-.34-.99.02-1.66.98-2.06,1.52-.63,3.04-.58,4.31.41,2.95,2.28,5.81,4.68,8.7,7.05.59.49,1.12,1.05,1.86,1.76Z"/><path class="cls-1" d="M267.37,237.06c-2.24-1.23-2.98-3.1-3.2-5.27-.76-7.66-1.54-15.31-2.22-22.98-.15-1.65-.7-2.8-2.12-3.72-2.66-1.71-5.22-3.59-7.83-5.39-.91-.63-1.72-1.32-1.75-2.58.63-.84,1.46-.63,2.33-.49,4,.65,7.44,2.62,10.91,4.51.63.34,1.24.71,1.83,1.04.29-.11.53-.14.67-.28,3.85-3.89,8.66-6.41,13.19-9.33,1.4-.91,2.93-1.18,4.55-.92,1.15.18,1.36.57,1.28,1.78-.13,2.13-1.17,3.6-3,4.67-4.47,2.62-8.86,5.37-12.89,8.66-1.34,1.09-1.81,2.19-1.62,3.88.63,5.57,1.16,11.16,1.67,16.74.16,1.72.14,3.45.18,5.18.03,1.74-.58,3.21-1.97,4.49Z"/><path class="cls-1" d="M185.09,213.5c-2.02,5.5-1.31,13.11,1.55,15.71,2.38-2.88,4.68-5.8,6.63-8.99.34-.55.65-1.12.97-1.68.39-.66.96-1.3,1.71-.86.4.23.68,1.11.59,1.63-.27,1.55-.54,3.16-1.2,4.56-1.38,2.92-2.91,5.78-4.55,8.57-2.08,3.52-5.45,3.68-8.1.53-2.15-2.54-2.81-5.61-3.19-8.79-.51-4.32-.17-8.64.52-12.89.76-4.64,3.59-8.12,7.2-10.92,2.42-1.87,5.71-1.39,7.42,1.19,1.37,2.07,2.38,4.43,3.27,6.76.35.9.11,2.15-.18,3.15-.61,2.13-1.07,2.34-3.25,2.13-.78-.07-1.57-.09-2.36-.1-2.29-.01-4.58,0-7.04,0ZM186.46,208.75c1.35-.29,2.32-.48,3.28-.7.95-.22,1.89-.46,2.99-.73-.6-1.43-.75-2.82-2.19-3.64-1.67,1.3-3.18,2.64-4.08,5.06Z"/><path class="cls-1" d="M256.12,211.32c-.34,1.32-.52,2.69-1.04,3.94-1.8,4.38-3.55,8.79-5.63,13.04-1.41,2.87-3.68,5.13-6.63,6.58-2.43,1.2-3.63.9-4.94-1.51-.64-1.18-1.16-2.49-1.42-3.81-.48-2.39-.79-4.82-1.04-7.25-.96-9.24,4.36-15.16,12.46-16.42,1.25-.2,2.6-.3,3.82-.06,2.66.52,4.28,2.75,4.43,5.49ZM241.2,229.57c3.77-2.06,9.45-12.42,9.69-17.42-1.41-.66-2.81-.32-4.16.19-3.03,1.15-5.05,3.49-6.83,6.06-.26.38-.39.97-.32,1.42.49,3.19,1.04,6.37,1.61,9.75Z"/><path class="cls-1" d="M176.05,233.9c-2.54-1.41-3.42-3.48-3.39-6.15.04-3.88-.05-7.76-.05-11.64,0-.92-.55-1.38-1.29-1.44-.8-.07-1.62.14-2.28.21,0,4.99-.03,9.66.02,14.32.01,1.5-.38,2.85-1.17,4.08-.57.9-1.15.94-1.94.22-1.43-1.32-1.83-3.04-1.88-4.89-.09-4.02-.19-8.05-.27-12.07-.1-4.7.77-9.28,1.46-13.9,1.26-.14,1.51.61,1.69,1.39.42,1.9.82,3.8,1.23,5.7.15.69.3,1.38.45,2.09,4.31-1.63,4.32-1.65,4.72-5.91.14-1.43.26-2.87.47-4.29.07-.5.4-.95.62-1.43.17,0,.34,0,.51,0,.23.54.57,1.07.69,1.63,1.17,5.7,2.75,11.33,2.4,17.26-.16,2.72.08,5.47.07,8.21,0,2.33-.3,4.6-2.06,6.62Z"/><path class="cls-1" d="M325.14,220.47c-.19-.64-.54-1.29-.54-1.93.04-2.36.13-4.73.32-7.08.24-3,.54-6,.92-8.99.39-2.99.53-6.1,1.5-8.91.93-2.71,1.57-5.3,1.28-8.14-.04-.41.1-.88.28-1.25.92-1.85,1.25-3.81,1.29-5.84.02-1.08.51-1.71,1.61-1.95,1.16-.25,2.33-.53,3.22.46.32.36.41,1.07.35,1.59-.29,2.35-.67,4.69-1.01,7.04-.13.92-.2,1.85-.35,2.76-.32,1.97-.46,4-1.07,5.89-1.27,4-1.99,8.09-2.3,12.25-.15,1.97-.46,3.84-1.25,5.64-1.24,2.81-2.46,5.64-3.68,8.45-.19,0-.39.01-.58.02Z"/><path class="cls-1" d="M313.75,219.3c-1.07-1.81-1-3.77-.95-5.67.09-3.73.26-7.47.57-11.2.36-4.29.89-8.57,1.36-12.85.05-.5.12-1.01.28-1.48.93-2.73,1.45-5.51,1.59-8.4.08-1.74.89-2.55,2.24-2.74,1.94-.27,3.32.1,3.15,2.52-.22,3.08-.36,6.12-1.33,9.13-.74,2.29-.88,4.78-1.27,7.19-.05.28.03.58-.01.86-.88,5.59-1.45,11.26-4.07,16.43-.54,1.07-.8,2.29-1.1,3.47-.23.89-.3,1.83-.45,2.74Z"/><path class="cls-1" d="M323.04,226.06c2.56.03,3.79,1.69,3.06,4.14-.56,1.88-1.94,3.48-3.03,3.22-1.68-.4-2.24-1.91-2.65-3.37-.71-2.53.31-4.02,2.62-3.99Z"/><path class="cls-1" d="M311.95,226.23c1.6.29,2.05.66,1.86,2.05-.15,1.12-.47,2.27-.96,3.28-.71,1.44-2.24,1.46-3.05.1-.78-1.33-.78-2.86-.1-4.13.35-.65,1.48-.88,2.25-1.3Z"/></g></svg>