<?xml version="1.0" encoding="UTF-8"?><svg id="Layer_2" xmlns="http://www.w3.org/2000/svg" viewBox="0 0 410.74 188.82"><defs><style>.cls-1{fill:#3d3b56;stroke-width:0px;}</style></defs><g id="Artwork"><path class="cls-1" d="M313.07,49.74c2.2,1.93,4.85,2.95,7.68,2.95h0c1.56,0,3.12-.32,4.62-.94.66-.28,1.22-.56,1.62-.77.12-.06.23-.12.35-.18,1.87-.9,3.73-1.81,5.59-2.72,4.16-2.03,8.45-4.14,12.68-6.03,3.33-1.49,6.72-2.82,10.31-4.24,2.02-.8,4.04-1.59,6.05-2.42l1.56-.64c3.25-1.33,6.62-2.7,9.94-4.27,4.75-2.23,6.5-5.55,7.14-7.93.64-2.4.75-6.19-2.34-10.58-1.31-1.86-2.74-3.48-4.01-4.92l-.14-.16c-3.99-4.51-9.2-6.9-15.05-6.9-.24,0-.47,0-.71.01-.12,0-.23,0-.34,0-4.71,0-8.72,1.41-11.67,2.64-4.96,2.06-9.89,5.04-15.07,9.13-7.85,6.2-13.93,12.58-18.58,19.52-1.17,1.74-2.13,3.56-2.86,5.4-1.82,4.59-.55,9.71,3.24,13.04ZM317.74,39.83c.53-1.33,1.22-2.61,2.02-3.8,4.58-6.83,10.36-12.51,16.78-17.58,4.02-3.18,8.29-5.98,13.05-7.95,2.81-1.16,5.68-2.07,8.85-1.98,3.71-.18,6.83,1.2,9.31,4.02,1.24,1.4,2.49,2.8,3.56,4.33,1.9,2.7,1.5,4.53-1.46,5.92-3.64,1.71-7.39,3.21-11.12,4.74-5.53,2.27-11.14,4.32-16.59,6.76-6.24,2.79-12.34,5.89-18.49,8.85-.52.25-1.02.54-1.55.76-1.24.52-2.4.35-3.42-.54-1.09-.96-1.47-2.21-.95-3.52Z"/><path class="cls-1" d="M46.08,131.15c3.37,1.95,6.16,4.28,8.48,7.17.4.5.76,1.12,1.28,1.44.76.47,1.67,1.14,2.56.34.76-.68.13-1.47-.13-2.18-.2-.54-.45-1.06-.72-1.56-1.47-2.72-2.95-5.44-4.43-8.15-.26-.48-.49-.97-.75-1.49,1.31-.9,2.5-1.71,3.67-2.54,2.01-1.42,3.43-3.38,4.17-5.65,1.07-3.29-.3-4.9-3.38-4.78-2.95.11-5.59,1.26-7.68,3.45-.88.92-1.72,1.88-2.63,2.86-.35-.31-.61-.55-.88-.77-2.88-2.32-5.94-4.31-9.54-5.31-1.79-.5-3.08.03-4.03,1.57-1.32,2.12-1.13,4.88.48,6.8,1.6,1.91,3.64,3.25,5.78,4.47.85.49,1.7.99,2.33,1.37-1.46,3.58-2.81,6.9-4.15,10.23-.51,1.26-.54,2.47.54,3.81,3.36-3.52,5.45-7.89,9.04-11.07Z"/><path class="cls-1" d="M242.73,130.77c-.02,1.09.63,1.83,1.65,1.87,1.04.04,1.91-.84,1.89-1.91-.02-.95-.87-1.79-1.81-1.78-.97,0-1.71.79-1.73,1.83Z"/><path class="cls-1" d="M215.51,135.77c-.03,1.13.54,1.73,1.68,1.76,1.14.03,1.81-.55,1.85-1.61.05-1.15-.7-1.95-1.81-1.94-1.04.01-1.69.68-1.72,1.78Z"/><path class="cls-1" d="M244.33,119.17c2.37-.32,4.26-2.43,4.53-5.09.03-.28,0-.58,0-.9.14-1.47-.33-2.81-1.16-4.04-2.32-3.44-6.93-3.12-8.76.59-.91,1.85-.97,3.74-.27,5.65.94,2.56,3.27,4.1,5.65,3.78Z"/><path class="cls-1" d="M234.84,141.67c2.48-.56,4.5-2.83,4.76-5.21-.24-.08-.54-.3-.75-.23-3.53,1.21-7.14,2.09-10.82,2.7-.29.05-.54.39-1.06.79,2.42,2.15,5.03,2.58,7.87,1.94Z"/><path class="cls-1" d="M243.78,98.8c2.05-.38,4-.04,5.95.55.96.29,1.93.59,2.91.78.42.08.89-.09,1.66-.19-1.69-2.79-3.89-4.18-6.76-4.41-2.5-.2-5.08,1.14-6.17,3.3,1.01,0,1.73.11,2.4-.02Z"/><path class="cls-1" d="M205.72,106.98c-2.36-1.21-5.77-.69-8.25,1.1-2.49,1.8-4.54,5.65-4.19,8.05,1.75-.53,2.74-1.99,4.01-3.07,1.36-1.15,2.74-2.29,4.17-3.35,1.32-.98,3.11-1.31,4.27-2.73Z"/><path class="cls-1" d="M124.7,146.95c-1.27-1.34-2.73-2.51-4.09-3.74.65-1.26,1.33-2.45,1.89-3.69.72-1.58,1.24-3.21,1.09-5-.18-2.22-1.45-3.23-3.63-2.71-1.52.36-2.79,1.18-3.67,2.49-1.04,1.54-2,3.14-3.05,4.8-1.04-.39-2.08-.9-3.18-1.16-1.31-.31-2.68-.52-4.02-.55-1.22-.03-2.57,1.29-2.74,2.36-.15.96.38,1.64,1.84,2.34.52.25,1.06.45,1.59.67,1.65.67,3.31,1.35,4.86,1.98-.13,3.28-.25,6.36-.39,9.43-.05,1.04.46,1.74,1.31,2.59,1.72-3.1,2.63-6.49,5-9.15,1.73.83,3.36,1.74,5.08,2.42,1.66.65,3.21,1.85,5.27,1.54-.07-2.39-1.92-3.31-3.15-4.61Z"/><path class="cls-1" d="M58.42,154.87c.9-1.33,1.57-2.73,1.53-4.4-.05-1.9-1.21-2.92-3.08-2.54-1.75.35-3.24,1.15-4.2,2.75-.4.66-.84,1.3-1.25,1.92-1.45-.56-2.76-1.12-4.11-1.56-1.17-.38-2.3-.27-3.1.82-1.38,1.88-.94,3.72,1.17,4.77,1.15.57,2.35,1.01,3.56,1.52-.4,3-2.01,5.76-1.18,9.05,3.06-1.44,3.54-4.68,5.97-6.55,1.41,1.14,2.87,2.26,4.27,3.46.92.79,1.8,1.13,2.93.13-.18-3.05-2.68-4.86-4.12-7.16.6-.81,1.13-1.49,1.61-2.2Z"/><path class="cls-1" d="M253.47,127.84c-1.06-.09-1.95.7-1.98,1.76-.03.98.69,1.77,1.68,1.84,1.07.08,1.96-.7,1.99-1.76.03-.95-.71-1.76-1.69-1.84Z"/><path class="cls-1" d="M249.06,133.93c-1.02.09-1.63.85-1.57,1.93.06,1.1.73,1.71,1.82,1.65,1.04-.05,1.72-.77,1.72-1.81,0-1.09-.87-1.88-1.96-1.78Z"/><path class="cls-1" d="M217.16,119.19c-.73-1.65-2.18-2.43-3.8-2.91-2.93-.86-5.82-.57-8.62.59-.54.22-.99.66-1.58,1.06,1.47,1.65,3.45.97,4.95,1.75-4.11,3.77-4.36,4.15-3.84,6.11.33-.07.71-.07,1-.23,3.29-1.85,6.83-2.92,10.52-3.61,1.79-.34,2.11-1.11,1.37-2.77Z"/><path class="cls-1" d="M401.76,117.18c2.92-3.15,6.47-7.52,7.92-13.41,1.24-5.03,1.39-10.08.45-15.01-3.2-16.7-12.62-28.92-27.99-36.31-7.06-3.39-14.68-5.04-23.27-5.04-1.31,0-2.66.04-4.02.12-9.13.53-17.73,2.88-25.56,6.99-.58.3-1.14.63-1.77,1.01l-.69.41-3.18,1.86c-6.88-1.89-13.67-3.15-20.46-3.81-2.85-.27-5.66-.41-8.37-.41-7.01,0-13.73.95-20.05,2.81-1.42-5.64-4.96-10.5-10.13-13.79-4.83-3.09-9.86-4.65-14.92-4.65-2.87,0-5.75.51-8.57,1.51l-.8.28c-2.49.89-5.07,1.8-7.67,2.97-1.52.68-3.05,1.41-4.59,2.18l-2.64-.68c-5.64-1.46-11.21-2.2-16.57-2.2-9.06,0-17.67,2.09-25.74,6.22-1.58-1.23-3.86-2.27-7.04-2.27h-.2c-4.32.05-8.43,1.55-12.2,4.46-1.26.97-2.36,2.2-3.19,3.55-.45.73-.8,1.48-1.07,2.25-1.82-.17-3.67-.26-5.6-.26-4.61,0-9.49.48-15.38,1.5-11.29,1.96-22.25,5.09-32.86,8.12l-1.94.55s-.01,0-.02,0c-3.21-5.43-7.27-10.42-12.18-14.92-6.77-6.19-14.68-10.05-23.53-11.46-4.02-.64-8.12-.97-12.2-.97-3.6,0-7.28.25-10.93.76-9.58,1.31-17.74,3.99-24.95,8.17-10.03,5.82-16.24,14.3-18.46,25.18C.35,78.09-.11,83.5.02,88.98c.16,6.61,1.11,13.46,2.96,21.54,4.61,20.07,11.14,38.86,16.91,54.6,2.73,7.44,8.33,12.9,16.19,15.78,4.66,1.71,9.58,2.54,15.05,2.54,2.76,0,5.65-.21,8.84-.65,7.83-1.07,15.74-3.8,24.17-8.36,1.1,1.99,2.36,3.86,3.82,5.58,4.89,5.76,11.13,8.8,18.03,8.8,1.79,0,3.64-.21,5.49-.62,1.22-.27,2.43-.57,3.63-.87,1.39-.35,2.71-.68,3.98-.93,4.53-.91,8.2-3.35,10.61-6.98,6.57,3.45,13.94,5.66,22.49,6.76,1.88.24,3.78.36,5.64.36h0c6.01,0,11.93-1.25,17.6-3.72,2.25-.98,4.49-2.46,6.83-4.52,2.02-1.77,3.39-3.98,4.07-6.44,10.41,7.54,22.79,11.57,36.85,11.97.47.01.94.02,1.41.02h0c6.86,0,13.86-1.45,20.8-4.32,4.4-1.82,8.39-4.25,11.88-7.16,3.65,5.7,8.9,9.97,15.7,12.72,4.76,1.92,9.67,2.9,14.59,2.9h0c6.24,0,12.59-1.57,18.88-4.66,7.39-3.63,12.72-8.87,15.85-15.44,2.82,2.6,5.81,4.84,9.03,6.74,7.87,4.64,16.54,7.13,26.51,7.62.95.05,1.9.07,2.83.07,8.29,0,16.2-1.83,23.52-5.45,8.86-4.38,15.02-11.76,17.8-21.35.71-2.44,1.05-5.16,1-7.86-.14-6.93-3.63-12.49-9.56-15.24-.55-.26-1.1-.48-1.64-.67-.12-1.58-.59-3.14-1.4-4.68,4.16-2.9,7.96-6.2,11.39-9.89ZM223.33,52.43c-.53.41-.93.78-1.39,1.08-9.14,5.81-17.72,12.34-25.62,19.75-.58.54-1.18,1.08-1.64,1.71-.23.31-.15.84-.28,1.84,1.12-.68,1.78-1.03,2.4-1.46,6.26-4.37,12.45-8.84,18.77-13.11,6.56-4.44,13.35-8.53,20.6-11.77,2.56-1.14,5.21-2.06,7.86-3,5.74-2.05,11.1-.86,16.05,2.3,3.52,2.25,5.95,5.55,6.68,9.69.4,2.28.26,4.76-.15,7.06-1.13,6.38-4.25,11.85-8.22,16.83-3.43-1.65-6.51-3.41-9.78-4.67-12.69-4.9-25.26-4.15-37.57,1.35-6.45,2.88-12.65,6.25-18.61,10.05-.66.42-1.34.82-2.27,1.38-.17-1.51-.31-2.82-.47-4.13-.79-6.41-2.65-12.44-6.95-17.38-2.05-2.36-4.6-4.29-7.01-6.5,13.74-11.81,29.56-15.7,47.61-11.02ZM167.77,58.42c.29-.48.7-.93,1.14-1.27,2.09-1.61,4.4-2.66,7.11-2.69.97-.01,1.85.14,2.43,1.02-1.65,3.9-5.76,6.14-9.67,5.28-1.4-.31-1.77-1.1-1.01-2.34ZM86.13,162.77c-1.85,1.58-3.87,3.03-6.01,4.18-6.68,3.61-13.69,6.38-21.29,7.42-6.71.91-13.35.92-19.81-1.45-5.28-1.94-9.18-5.4-11.14-10.73-6.45-17.57-12.41-35.3-16.6-53.57-1.5-6.53-2.58-13.13-2.75-19.85-.12-4.77.26-9.48,1.22-14.16,1.78-8.75,6.79-15.11,14.4-19.53,6.76-3.92,14.14-6.05,21.83-7.1,6.87-.94,13.75-.92,20.63.18,7.35,1.17,13.7,4.37,19.13,9.34,10.54,9.64,16.5,21.7,17.98,35.85,1.81,17.3-5.97,30.01-19.83,39.46-2.51,1.71-5.62,2.56-8.47,3.75-2.18.91-4.4,1.73-6.6,2.59l.06.45c3.7-.52,7.39-1.02,11.08-1.57,1.78-.26,3.55-.57,5.31-.93.92-.19,1.58.08,2.04.82.49.79.96,1.61,1.34,2.46,1.51,3.45,2.64,7.04,2.77,10.81.17,4.69-1.77,8.57-5.29,11.57ZM176.66,171.91c-1.38,1.22-2.93,2.38-4.61,3.1-5.99,2.6-12.27,3.55-18.78,2.72-7.13-.91-13.97-2.76-20.31-6.22-.63-.35-1.22-.78-1.86-1.1-1.64-.82-2.46-2.04-2.42-3.94.03-1.28-.23-2.58-.46-3.85-.18-1.04-.44-2.1-1.61-3.04-.33,2.26-.49,4.31-.95,6.28-.58,2.44-1.26,4.88-2.18,7.2-1.08,2.69-3.11,4.4-6.06,5-2.61.53-5.17,1.27-7.77,1.84-6.18,1.36-11.19-.66-15.21-5.39-1.88-2.21-3.32-4.68-4.37-7.34.14-.28.19-.51.33-.66,6.92-7.02,8.14-15.25,5.1-24.33-.88-2.64-2.07-5.18-3.21-8.01,3.58-3.32,6.84-7.33,9.86-11.54,4.2-5.86,6.77-12.37,7.49-19.54.69-6.8.05-13.52-1.84-20.1-.79-2.74-1.8-5.43-2.74-8.24.33-.16.63-.36.96-.45,11.21-3.2,22.41-6.48,33.91-8.47,7.46-1.29,14.99-1.98,22.55-.64,5.42.96,10.37,2.88,14.43,6.78,4.13,3.98,6.22,8.95,7.14,14.46,1.49,9,.21,17.78-2.37,26.43-2,6.7-4.96,12.87-9.57,18.21-4.27,4.94-9.62,8.42-15.25,11.53-7.23,3.98-14.97,6.66-22.84,9.04-.6.18-1.2.36-1.79.55,3.81.52,7.52.04,11.17-.72,3.52-.73,6.98-1.72,10.47-2.6.63-.16,1.24-.38,1.87-.52,1.6-.37,3.04-.18,4.51.74,5.5,3.48,10.62,7.42,14.98,12.29,1.3,1.45,2.41,3.03,2.89,4.99.52,2.14.2,4.1-1.44,5.55ZM242.16,171.67c-6,2.48-12.23,3.85-18.72,3.66-12.26-.35-23.56-3.73-33.38-11.3-4.19-3.23-7.54-7.31-10.76-11.48-.66-.86-1.35-1.68-2-2.55-1.38-1.84-3.31-2.83-5.46-2.28-3.3.84-5.44-.85-7.59-2.65,3.25-2.59,6.49-5.17,9.7-7.72.83.73,1.66,1.66,2.67,2.32,4.27,2.8,10.18,2.02,13.53-1.91,1.29-1.51,2.19-3.37,3.17-5.12.25-.45.26-1.13.18-1.67-.2-1.26-1.02-1.69-2.2-1.16-1.05.47-2.02,1.13-3.09,1.53-2.78,1.03-6.29-1.34-6.36-4.29-.01-.53.26-1.11.53-1.6,3.16-5.89,5.22-12.16,6.53-18.68.19-.94.57-1.7,1.23-2.44,1.63-1.82,3.11-3.77,4.68-5.64,1.47-1.76,3.44-2.53,5.68-2.74,2.6-.25,3.49-1.14,3.88-3.74.12-.82.29-1.64.48-2.73.67.39,1.13.56,1.47.86,1.42,1.28,3.09,1.6,4.84,1.11,2.35-.66,4.7-1.38,6.94-2.33,3.9-1.65,7.88-2.77,12.15-2.55,1.36.07,2.72.26,4.06.5.84.15,1.7.43,1.97,1.54-.44,1.01-1.51,1.16-2.41,1.52-.85.34-1.73.61-3.12,1.09,1.18.75,1.87,1.34,2.68,1.67,2.65,1.09,5.32,1.04,8,.03,2.54-.95,4.72-2.41,6.6-4.38,1.76-1.83,3.11-1.73,4.95-.02.99.92,2.1,1.82,3.32,2.34,1.2.52,1.76,1.34,2.24,2.42,2.79,6.28,2.95,12.71.93,19.17-.65,2.09-.63,3.88.32,5.8,1.18,2.38,2.31,4.8,3.31,7.27.66,1.66,1.23,3.39,1.53,5.15,3.14,18.42-7.19,34.7-22.46,41ZM316.96,155.08c-.71,9.62-5.7,16.4-14.26,20.61-8.61,4.24-17.46,5.17-26.53,1.51-6.5-2.63-11.27-7.06-13.94-13.75,3.09-4.13,5.43-8.63,7.09-13.64,9.14,1.78,18.14,3.54,27.35,2.8.04-.17.07-.34.11-.51-.41-.17-.8-.42-1.22-.51-4.65-.99-9.32-1.85-13.94-2.95-3.14-.75-6.21-1.8-9.31-2.75-.61-.19-1.16-.52-1.67-.76.1-3.06.28-6,.26-8.94-.03-5.25-.91-10.31-3.65-14.93-.8-1.34-1.33-2.84-2.13-4.59,1.02,0,1.76.01,2.51,0,4.5-.1,8.66-3.63,9.46-8.04.06-.35.17-.72.14-1.06-.08-.8-.54-1.19-1.34-.88-.53.2-1.01.53-1.49.83-.42.27-.78.64-1.22.88-2.6,1.4-5.26-.06-5.39-3-.08-1.8.04-3.6-.04-5.4-.07-1.58-.16-3.17-.44-4.72-.57-3.14-2.5-5.25-5.52-6.62.91-1.27,1.79-2.47,2.65-3.7,3.63-5.19,6.33-10.81,7.49-17.07.24-1.32.9-1.9,2.12-2.33,9.2-3.31,18.68-4.03,28.32-3.1,15.08,1.45,29.26,6.07,42.88,12.54,2.47,1.17,4.93,2.37,7.34,3.67,2.67,1.45,5.09,3.27,7.1,5.58,3.45,3.95,4.1,9.03,1.55,13.43-7.91,13.64-17.35,26.15-28.35,37.45-1.2,1.23-2.54,2.34-3.87,3.44-2.02,1.69-4.33,2.23-6.87,1.42-4.04-1.29-8.04-2.75-12.12-3.92-4.21-1.21-8.46-2.33-12.76-3.15-3.25-.62-6.6-.46-9.88.21-.26.05-.5.2-1.08.43,5.79,1.18,11.23,2.24,16.64,3.42,3.12.68,6.04,1.93,8.54,3.98,4.47,3.67,5.88,8.6,5.48,14.11ZM367.48,129c-2.03.67-4.18.97-6.47,1.49,1.44,1.04,3.04,1.29,4.69,1.3,4.45.02,8.69-1.1,12.91-2.35,2.46-.73,2.56-.76,3.69.75,1.25,1.66,1.33,2.84.13,4.53-.53.75-1.19,1.45-1.91,2.03-3.74,3.02-7.96,5.13-12.62,6.35,1.24.81,1.38.94,2.82.89,4.79-.15,9.25-1.21,12.88-4.64.36-.34,1.04-.62,1.49-.53,1.61.32,3.29.61,4.76,1.29,3.21,1.49,4.57,4.32,4.64,7.7.04,1.77-.17,3.62-.66,5.32-2.11,7.29-6.56,12.72-13.4,16.1-6.99,3.45-14.37,4.89-22.17,4.51-8.06-.39-15.63-2.33-22.6-6.45-4.83-2.85-8.93-6.55-12.49-10.85-.39-.47-.7-1.1-.78-1.7-.43-3.05-.78-6.1-1.17-9.33,1.1,0,2.43.13,3.74-.03,3.53-.43,6.57-2.05,9.37-4.14,3.59-2.69,6.82-5.76,9.5-9.37,6.21-8.39,12.45-16.77,18.59-25.21,2.07-2.85,3.8-5.95,4.91-9.34,2.14-6.55.84-12.34-3.94-17.33-3.71-3.87-8.3-6.45-13.11-8.59-5.98-2.65-12.07-5.06-18.11-7.57-.26-.11-.49-.27-1.03-.57.83-.48,1.46-.89,2.12-1.23,6.93-3.63,14.28-5.57,22.1-6.03,8.06-.47,15.82.6,23.11,4.1,12.81,6.15,20.64,16.27,23.32,30.24.72,3.76.57,7.62-.35,11.37-.94,3.82-3.28,6.85-5.9,9.67-7.77,8.37-17.27,14.03-28.05,17.61Z"/><path class="cls-1" d="M242.91,152.27c-4.97,1.57-10.05,2.46-15.26,2.51-3,.03-6.01-.01-8.89-.69-.71-1.71-1.07-3.55-3.51-4.38.25,1.61.56,2.8.59,3.99.03,1.28-.2,2.57-.3,3.85-.09,1.13-.95,2.21-.18,3.77,1.07-1.15,1.97-2.12,2.93-3.15.2.02.49,0,.76.07,5.12,1.14,10.27,1.18,15.43.34,3.49-.57,6.89-1.51,10.11-2.98,1.49-.68,2.86-1.58,3.46-3.59-.91-.12-1.67-.32-2.4-.27-.92.06-1.86.26-2.74.54Z"/><path class="cls-1" d="M208.12,136.57c-1.05,0-1.93.93-1.83,1.95.09.96.93,1.65,1.96,1.59,1.03-.06,1.75-.83,1.71-1.83-.04-1.01-.79-1.71-1.83-1.71Z"/><path class="cls-1" d="M216.77,142.24c-.05-1.02-1.03-1.87-2.02-1.76-.91.1-1.66.99-1.62,1.93.04.92.9,1.78,1.79,1.79.98,0,1.89-.97,1.84-1.96Z"/></g></svg>