<svg xmlns="http://www.w3.org/2000/svg" version="1.1" xmlns:xlink="http://www.w3.org/1999/xlink" xmlns:svgjs="http://svgjs.dev/svgjs" viewBox="0 0 600 600"><path d="M209.16049841361416 179.99133882913122C203.04161718802823 192.75357637795935 199.37028387503995 200.0962328314099 196.5730808110751 237.6836453476859C193.77587774711026 275.2710578639619 156.01364528454516 376.8444857000622 192.3772800298251 405.5158139267874C228.74091477510504 434.18714215351275 377.8667794398186 437.15916770689824 414.7548892827548 409.7116147080374C451.642999125691 382.2640617091768 417.7269148361402 278.41790717833373 413.7059390874423 240.8304959336234C409.68496333874435 203.2430846889131 403.0416222742912 200.09623664610717 390.6290347905673 184.18714723977575C378.21644730684335 168.2780578334444 357.76188543753995 152.8934422532035 339.23041418509854 145.37595949563513C320.69894293265713 137.85847673806677 297.0975482793368 136.4598739345186 279.44020727591885 139.0822506943656C261.7828662725009 141.70462745421258 244.99965297497482 154.2920386989229 233.28636816459073 161.11022005471716C221.5730833542066 167.9284014105114 215.2793796392001 167.2291012803031 209.16049841361416 179.99133882913122C203.04161718802823 192.75357637795935 199.37028387503995 200.0962328314099 196.5730808110751 237.6836453476859 " fill="hsl(0, 0%, 90%)" transform="matrix(2.0789281794113688,0,0,2.0789281794113688,-346.489185651,-285.3065548906597)"></path></svg>