<?xml version="1.0" encoding="UTF-8"?><svg id="Layer_2" xmlns="http://www.w3.org/2000/svg" viewBox="0 0 501.61 568.47"><defs><style>.cls-1{fill:#fff;stroke-width:0px;}</style></defs><g id="Artwork"><path class="cls-1" d="M501.44,64.61c.34,4.8.18,9.79-.35,14.8-.56,5.04-1.52,10.07-2.75,15.1l-.49,1.87c-.16.64-.32,1.26-.52,1.87l-1.1,3.77-1.22,3.71c-.19.64-.45,1.26-.67,1.87l-.67,1.84c-1.82,4.93-3.88,9.79-6.16,14.56-2.31,4.8-4.83,9.47-7.51,14.09-2.68,4.58-5.6,9.06-8.61,13.46l-2.32,3.26c-.78,1.1-1.6,2.16-2.38,3.23l-1.22,1.61-1.22,1.55c-.56.7-1.13,1.4-1.66,2.1-6.31-4.18-14.07-8.83-23.24-13.42-17.03-8.47-34.91-14.65-53.17-18.34-40.54-8.26-73.18-1.68-85.46.8-30.79,6.21-52.17,17.34-84.52,34.14-20.88,10.89-41.82,23.44-60.51,36.3-43.66,30.07-84.97,67.92-122.88,112.55-5.53-14.47-9.48-29.6-11.71-44.96-1.55-10.7-2.24-21.54-2.06-32.37.14-10.86,1.18-21.68,3.08-32.36,3.79-21.37,11.05-42.16,21.28-61.47,2.56-4.83,5.27-9.56,8.19-14.23,1.45-2.32,2.92-4.61,4.46-6.89.78-1.16,1.57-2.29,2.35-3.45.82-1.19,1.6-2.29,2.38-3.38,6.33-8.87,13.4-17.36,21.01-25.29,3.81-3.98,7.7-7.84,11.78-11.54,4.05-3.7,8.25-7.24,12.57-10.63l1.62-1.24,1.62-1.24c1.09-.85,2.21-1.66,3.32-2.45,1.09-.82,2.21-1.6,3.32-2.39,1.12-.79,2.3-1.57,3.45-2.35,4.63-3.14,9.31-6.12,14.06-8.98,9.52-5.75,19.31-10.91,29.4-15.33,5.01-2.21,10.15-4.2,15.31-6.01,5.16-1.81,10.41-3.43,15.69-4.78,10.59-2.72,21.41-4.52,32.35-5.36,10.93-.84,21.98-.75,33.05.04,16.72,1.21,33.52,4.01,50.36,7.35-7.48,4.58-14.86,9.31-22.16,14.14-19.03,12.7-37.52,26.18-55.4,40.34-8.93,7.11-17.67,14.44-26.2,21.99-8.56,7.55-16.91,15.28-24.96,23.36-1.31,1.34-1.52,3.43-.44,5.01,1.24,1.77,3.66,2.2,5.43.96,9.32-6.49,18.48-13.11,27.65-19.66,9.19-6.56,18.36-13.11,27.58-19.57,18.39-12.96,37.02-25.54,56.04-37.35,4.78-2.98,9.56-5.87,14.36-8.73,4.81-2.86,9.61-5.69,14.48-8.42,9.73-5.47,19.56-10.73,29.5-15.61,9.97-4.85,20.09-9.33,30.3-13.14,5.1-1.9,10.23-3.65,15.39-5.09,2.56-.74,5.13-1.41,7.69-1.99,2.53-.58,5.09-1.07,7.59-1.44,2.53-.4,4.99-.67,7.39-.76,2.4-.12,4.71-.09,6.83.15l.77.1.22.03.21.03.49.1,1.87.3c1.29.23,2.55.43,3.77.73,1.26.29,2.52.56,3.77.85l3.71,1c4.9,1.48,9.74,3.27,14.39,5.42.58.25,1.16.51,1.74.79l1.71.85c1.13.57,2.23,1.2,3.36,1.8,2.2,1.26,4.37,2.55,6.38,3.93.49.34,1.01.72,1.46,1.03l.7.53.24.16.06.06.03.03.06.06.03.03.09.06.09.06.06.06.3.28.64.56c.46.44.88.84,1.34,1.28,1.79,1.72,3.52,3.55,5.19,5.48,3.33,3.8,6.39,7.9,9.01,12.12.33.53.63,1.05.93,1.58l.93,1.61.45.81.42.84.84,1.61c.54,1.11,1.02,2.23,1.53,3.31.21.53.39,1.05.59,1.58l.33.77.15.37.12.4c1.42,4.3,2.28,8.92,2.65,13.73Z"/><path class="cls-1" d="M492.92,400.07c0,2.52-.04,5.02-.13,7.54-.05,1.26-.1,2.52-.14,3.78l-.04.95-.07.95-.12,1.81c-.31,4.83-.9,9.65-1.7,14.47-1.63,9.58-4.25,18.99-7.76,28.14-3.48,9.15-7.81,18.02-12.87,26.48-5.07,8.46-10.87,16.56-17.24,24.02-1.59,1.86-3.22,3.68-4.9,5.44-.81.88-1.69,1.76-2.56,2.64-.84.88-1.72,1.73-2.62,2.58-3.52,3.4-7.2,6.64-11.02,9.73-7.65,6.11-15.85,11.57-24.49,16.26-8.68,4.68-17.75,8.63-27.17,11.89-2.38.83-4.76,1.6-7.17,2.34-1.21.38-2.44.74-3.68,1.12l-1.85.53-1.79.53c-4.79,1.35-9.6,2.49-14.48,3.47-4.87.98-9.78,1.75-14.71,2.36-4.93.58-9.89.98-14.85,1.19-4.99.21-10,.24-15.02.08-5.01-.16-10.02-.5-15.13-.94l-3.84-.36-1.97-.18-.95-.11-.95-.1-3.75-.42-3.75-.48c-5.01-.68-9.98-1.52-14.92-2.51-9.91-1.98-19.66-4.6-29.25-7.8-9.59-3.17-18.98-6.96-28.16-11.3-4.59-2.15-9.11-4.49-13.6-6.92-2.23-1.2-4.49-2.46-6.75-3.75l-1.68-.95-1.56-.91-1.56-.94-1.56-.97c-8.27-5.19-16.1-11.38-23.57-18.16-7.45-6.78-14.52-14.13-21.28-21.85-3.36-3.86-6.7-7.81-9.94-11.82-3.24-4.04-6.42-8.12-9.62-12.31l-2.42-3.2c-.85-1.06-1.66-2.15-2.6-3.33l-.76-.9-.39-.5-.39-.44-1.33-1.53c-.48-.56-.97-1.12-1.55-1.74-.61-.62-1.24-1.31-2.19-2.12-.46-.41-.97-.84-1.58-1.25l-.79-.56-.82-.5c-1.07-.63-2.17-1.17-3.27-1.61-2.23-.89-4.38-1.35-6.38-1.62-2-.24-3.87-.3-5.6-.26-1.75.04-3.39.2-4.96.4-3.11.39-5.98.97-8.7,1.55-2.75.58-5.34,1.19-7.84,1.74-5.03,1.13-9.81,2.05-14.19,2.4-1.11.08-2.19.09-3.2.11-.52,0-1.05-.01-1.54-.05-.46,0-.95-.04-1.41-.11-1.84-.18-3.72-.6-5.58-1.24-3.74-1.25-7.43-3.39-10.93-6.11-1.74-1.38-3.44-2.91-5.08-4.53s-3.22-3.37-4.82-5.26l-.64-.75-.51-.65-.55-.65-.51-.65-.51-.68-.51-.68-.48-.68-.48-.68c-1.24-1.86-2.38-3.82-3.4-5.83-2.04-4.03-3.61-8.32-4.69-12.83-.52-2.25-.96-4.54-1.26-6.88-.17-1.17-.28-2.34-.38-3.54-.11-1.2-.18-2.4-.26-3.73-.08-1.29-.15-2.49-.17-3.69-.05-1.2-.06-2.37-.05-3.54.03-2.34.21-4.58.55-6.79.31-2.18.8-4.33,1.44-6.32.16-.52.32-1.01.51-1.5.19-.49.41-1.01.6-1.5.44-1.01.92-1.99,1.42-2.94,2.02-3.79,4.74-7.17,8.07-10.08,1.34-1.18,2.8-2.27,4.32-3.27,10.77,2.51,27.15,3.78,35.08.1,19.13-8.85,26.65,9.15,27.58,10.67,2.83,4.59,2.37,6.89,4.99,15.88,1.86,6.27,3.77,12.79,6.81,17.75,8.19,13.46,25.26,16.74,27.9,17.2,17.31,3.09,30.5-5.29,34.38-7.76,10.71-6.78,15.06-15.06,21.37-27.04,1.67-3.15,3.67-7.52,2.25-12-.18-.53-1.57-4.76-4.97-5.7-2.61-.74-4.9.92-7.91,2.7-3.91,2.32-11.97,7.1-18.13,7.24-6.77.13-12.02-5.33-13.63-7.01-9.04-9.44-10.99-27.16-7.09-40.96,1.74-6.16,4.74-11.88,2.15-18.13-.45-1.05-2.24-4.92-6.28-6.79-5.11-2.38-11.16-.33-14.55,2.21-1.74,1.3-2.74,2.7-2.99,2.51-.49-.34,3.54-6.72,6.08-10.29,6.24-8.72,12.79-13.09,25.06-21.64,16.96-11.81,25.47-17.72,27.28-19.82,6.56-7.61,7.74-12.57,17.66-22.66,4.93-5.01,7.42-7.53,11.39-9.91,13.31-7.95,21.19-1.9,28.21-8.49,8.44-7.92,3.97-23.33,8.94-24.37,2.62-.55,4.01,3.62,9.51,6.53,5.81,3.09,12.12,2.59,18.84,1.3,19.59-3.83,31.09-12.33,51.84-18.2,0,0,21.03-5.94,44.67-1.71,9.27,1.66,11.02,3.96,11.87,5.51,3.69,6.88-21.83,10.14-22.54,12.9-.58,2.21,4.18,5.22,4.97,5.7,8.61,5.35,26.28,9.24,43.7,1.63,29.77-12.99,25.84-25.26,36.93-23.97,1.84.21,5.59-1.37,9.94,4.56,3.17,4.35,10.25,8.97,15.02,11.28,1.92,1.32,4.13,2.05,6.34,2.24,1.38,2.51,2.7,5.05,3.87,7.65,2.03,4.43,3.79,8.94,5.2,13.55,2.89,9.21,4.52,18.77,4.95,28.44.21,4.8.15,9.66-.22,14.49-.34,4.86-1.02,9.68-1.92,14.47-.89,4.79-2.07,9.54-3.48,14.29-.32,1.2-.71,2.36-1.09,3.59l-.58,1.87c-.22.67-.42,1.32-.68,2.18l-.19.71-.1.43-.13.55-.13.77c-.07.34-.13.77-.17,1.47,0,.65-.34,2.43.97,5.77l.09.22.78,1.83,1.55,3.68c2.06,4.89,4.09,9.81,6.2,14.73,1.07,2.48,2.12,4.92,3.25,7.46l.84,1.89.45.96.45.96c.6,1.3,1.23,2.63,2.01,4.09.21.4.39.74.66,1.18l.6,1.05.36.65.39.68c.48.93.96,1.86,1.38,2.85.9,1.92,1.7,3.99,2.41,6.16,1.42,4.27,2.5,8.86,3.33,13.58,1.63,9.47,2.26,19.45,2.29,29.45ZM441.77,374.93c4.28-.34,7.5-4.15,7.13-8.46-.37-4.28-4.15-7.5-8.46-7.13-4.28.34-7.5,4.15-7.13,8.46.34,4.28,4.15,7.5,8.46,7.13ZM442.99,236.76c1.09-.63,1.47-2.07.81-3.19-.66-1.15-1.42-2.17-2.23-3.17-.82-.96-1.7-1.9-2.58-2.8-1.82-1.75-3.8-3.31-5.91-4.72-2.1-1.38-4.36-2.64-6.81-3.63-2.42-1.02-5.02-1.82-7.88-2.26l-.55-.07-.55-.07c-.37-.04-.71-.07-1.11-.11-.37,0-.74-.04-1.14-.05h-.62s-.31-.01-.31-.01l-.28.03-1.11.05-1.05.11c-.37.03-.68.08-1.02.14-.34.03-.68.08-1.02.14-2.62.46-5.09,1.16-7.47,2.05-2.38.89-4.67,1.97-6.84,3.29-.56.33-1.09.66-1.61,1.02-.53.36-1.06.72-1.55,1.12-.53.39-1.03.82-1.49,1.24-.5.42-.97.85-1.4,1.34-.31.33-.53.76-.54,1.25-.08,1.08.77,2.01,1.85,2.09h.09c.65.04,1.23.02,1.85.03.62-.02,1.2-.01,1.79-.04,1.2.02,2.34-.03,3.48-.08l6.71-.19c2.19-.06,4.34-.13,6.37-.13h.77s.71.05.71.05h.71s.65.05.65.05l.15.03h.15s.25.04.25.04l.61.1.61.1.64.1c1.78.33,3.68.82,5.64,1.37,1.96.55,4.02,1.16,6.13,1.77,2.08.61,4.26,1.23,6.5,1.81,1.1.29,2.27.55,3.44.81,1.17.26,2.36.49,3.59.66h.09c.49.07,1.02-.02,1.48-.29ZM423.69,401.83c4.31-.34,7.53-4.12,7.16-8.43-.37-4.31-4.15-7.5-8.46-7.16-4.31.37-7.5,4.15-7.13,8.46.34,4.31,4.15,7.5,8.43,7.13ZM400.37,320.68c12.81-1.09,22.19-14.07,20.91-29.05-1.25-14.94-12.64-26.2-25.45-25.14-12.81,1.09-22.19,14.07-20.94,29.05,1.28,14.94,12.67,26.2,25.48,25.14ZM417.18,468.57c.27-1.53-.76-2.99-2.3-3.26h-.09c-1.66-.3-3.2-.32-4.7-.31-1.48.01-2.95.05-4.37.22-1.42.17-2.8.36-4.16.62-1.36.26-2.68.58-4.01.9s-2.59.73-3.89,1.15l-3.89,1.18c-1.27.41-2.59.73-3.89,1.09l-1.95.53-.99.26-.99.26-3.92.96-.96.26-.99.2-1.98.44-1.97.44c-.65.15-1.33.29-1.97.4l-3.95.78c-.68.11-1.33.26-2.01.37l-1.97.31c-1.33.2-2.65.43-3.98.65l-3.98.53-1.97.28c-.34.03-.68.08-1.02.11l-.99.11c-10.63,1.21-21.35,1.65-32.02,1.39-5.35-.1-10.7-.45-16.05-.92-4.92-.43-9.83-1.05-14.75-1.73-.06-.43-.08-.83-.17-1.26-.37-2.44-1.07-4.78-2.03-6.98-1.97-4.36-4.97-8.07-8.44-10.7l-.06-.06c-.37-.28-.83-.41-1.32-.39-1.08.11-1.86,1.02-1.75,2.1.11,1.2.31,2.25.48,3.3l.58,3.02c.34,1.97.66,3.82.88,5.61.22,1.79.38,3.54.42,5.24l-.02,1.29c.03.43-.01.86-.02,1.32-.04.43-.01.86-.05,1.32l-.08,1.29c-.2,3.54-.77,7.04-1.53,10.72-.39,1.81-.85,3.68-1.34,5.61l-.16.74-.19.74c-.13.49-.29.98-.39,1.5-.29,1.01-.55,2.02-.78,3.16-.1.4-.04.8.17,1.17.45.81,1.46,1.07,2.27.65l.06-.06c.96-.54,1.89-1.21,2.76-1.93.47-.36.9-.76,1.31-1.12.44-.39.81-.82,1.22-1.21,1.59-1.7,2.97-3.56,4.14-5.58.63-1.13,1.2-2.26,1.68-3.45,2.08.55,4.17,1.07,6.29,1.5,2.85.62,5.74,1.18,8.62,1.65,2.89.44,5.8.85,8.69,1.13,1.47.17,2.92.32,4.39.43.74.07,1.48.11,2.18.15l2.21.12c11.71.65,23.51.13,35.1-1.44l1.11-.14c.34-.06.71-.14,1.08-.2l2.16-.34,4.35-.71,4.29-.9,2.13-.43c.74-.14,1.45-.35,2.16-.49l4.26-1.05c.71-.14,1.39-.35,2.1-.56l2.1-.59,2.1-.62,1.08-.29,1.02-.32,4.17-1.3,1.05-.36,1.02-.36,2.07-.74c1.36-.47,2.75-.95,4.08-1.48l4.08-1.55c1.33-.54,2.66-1.13,3.99-1.76,1.3-.63,2.57-1.35,3.81-2.13,1.24-.78,2.45-1.63,3.63-2.6,2.3-1.88,4.51-4,6.31-6.84.22-.3.35-.67.41-1.04ZM402.66,380.04c4.28-.34,7.5-4.15,7.13-8.43-.34-4.31-4.15-7.53-8.46-7.16-4.28.37-7.5,4.15-7.13,8.46.34,4.31,4.15,7.5,8.46,7.13ZM380.73,400.42c.19-.43.29-.92.23-1.44-.13-1.57-1.53-2.76-3.1-2.63-1.45.13-2.81.46-4.04.81-.65.18-1.27.35-1.85.56-.59.21-1.17.42-1.76.59-2.26.83-4.33,1.67-6.28,2.44-1.92.74-3.71,1.4-5.38,1.93-.43.12-.83.24-1.24.35l-1.2.32-1.33.32-.68.18-.68.11c-1.82.44-3.67.75-5.58,1.1-1.94.31-3.95.62-6.07.93-2.13.31-4.38.65-6.75,1.08-.59.12-1.17.23-1.79.35-.62.15-1.23.29-1.88.47-1.23.29-2.53.7-3.83,1.27-.37.18-.71.45-.96.79-.85,1.13-.62,2.7.51,3.51l.15.09c1.04.78,2.04,1.44,3.11,2.07.52.35,1.04.63,1.59.94.55.28,1.1.57,1.65.85,2.26,1.08,4.65,2,7.16,2.65,2.51.68,5.19,1.05,7.92,1.15.34,0,.68.04,1.01.04s.68-.02,1.05-.02c.34-.03.68-.02,1.02-.05s.68-.02,1.05-.08c.68-.05,1.39-.14,2.06-.22.34-.03.68-.11,1.05-.17l1.02-.2,1.02-.2c.37-.09.71-.18,1.05-.26.68-.21,1.33-.38,2.01-.62.71-.27,1.45-.5,2.13-.8.68-.3,1.36-.6,2.01-.96,2.6-1.35,4.87-3.01,6.83-4.83,1.96-1.79,3.59-3.77,5-5.81.38-.52.69-1.01,1.04-1.52.31-.52.63-1.04.91-1.59.63-1.04,1.17-2.08,1.7-3.21l.13-.31ZM282.52,402.11c4.31-.34,7.53-4.12,7.16-8.43-.37-4.31-4.15-7.5-8.46-7.16-4.31.37-7.5,4.15-7.13,8.46.34,4.31,4.15,7.5,8.43,7.13ZM282.64,328.35c.04-.98-.06-2.43-.41-3.97-.35-1.57-1-3.24-1.91-4.76-.9-1.55-2.05-3.01-3.33-4.23-.33-.31-.67-.62-1-.91l-.49-.44-.52-.41c-.37-.25-.7-.5-1.07-.75-.34-.25-.7-.47-1.07-.72-2.9-1.79-5.93-3-8.9-3.84-3-.87-5.98-1.34-8.93-1.63-2.92-.25-5.84-.32-8.71-.12-.71.02-1.42.07-2.16.13-.68.08-1.39.17-2.1.25-.71.08-1.42.2-2.13.31-.68.11-1.39.23-2.1.37-.68.14-1.39.29-2.07.43-.68.18-1.39.35-2.07.56-.68.18-1.36.38-2.04.56-.68.21-1.36.44-2.01.68-.68.27-1.36.5-2.01.77-.68.24-1.33.54-1.98.84-1.33.6-2.63,1.26-3.9,2.04-.5.33-.93.82-1.13,1.4-.51,1.44.24,3.02,1.65,3.5l.06.03c1.41.51,2.79.87,4.14,1.16,1.38.33,2.73.62,4.08.85.68.13,1.32.23,2,.33.68.13,1.32.23,2,.33.65.07,1.32.17,1.97.24.68.1,1.32.17,1.97.24,3.32.38,6.54.67,9.71.93l-.56.15c-2.97.88-5.84,2.14-8.48,3.7-2.64,1.56-5.06,3.41-7.18,5.5-2.15,2.06-4,4.38-5.51,6.85-.41.61-.76,1.25-1.1,1.89-.19.31-.35.61-.5.95-.16.34-.32.67-.47.98-.6,1.32-1.11,2.69-1.53,4.1-.13.55-.11,1.17.1,1.76.57,1.39,2.16,2.09,3.58,1.52l.12-.06c1.33-.54,2.51-1.14,3.68-1.7l.9-.45.87-.45c.56-.27,1.12-.57,1.7-.84,2.23-1.17,4.34-2.25,6.44-3.27,2.07-.99,4.09-1.91,6.1-2.72,2.01-.8,3.99-1.52,6.06-2.17,2.04-.65,4.11-1.21,6.3-1.73,2.16-.53,4.44-.99,6.82-1.48,2.34-.46,4.81-.92,7.34-1.47.65-.11,1.3-.26,1.94-.4.65-.15,1.3-.32,1.95-.5.65-.15,1.33-.32,2.01-.5.65-.21,1.33-.38,2.01-.65l.06-.03.65-.36c.65-.33,1.09-1,1.1-1.77l.04-1.05ZM272.29,430.92c4.31-.34,7.5-4.12,7.16-8.43-.37-4.31-4.15-7.5-8.46-7.16-4.31.37-7.5,4.15-7.13,8.46.34,4.31,4.12,7.5,8.43,7.13ZM242.18,413.35c4.31-.37,7.53-4.15,7.16-8.46-.37-4.31-4.15-7.5-8.46-7.13-4.31.34-7.5,4.15-7.13,8.43.34,4.31,4.15,7.53,8.43,7.16ZM229.99,267.99c.36-1.26-.4-2.59-1.68-2.95-1.59-.42-3.16-.63-4.7-.74-1.57-.14-3.07-.16-4.61-.09-3.05.11-6.07.5-9.06,1.2-3.02.7-5.99,1.67-8.99,3.08-.74.36-1.46.75-2.23,1.17-.37.18-.71.42-1.05.63-.37.21-.71.42-1.06.66-.68.45-1.37.9-2.02,1.39-.65.51-1.31,1-1.93,1.54l-.9.79-.9.82c-.59.55-1.15,1.12-1.71,1.67-1.09,1.15-2.12,2.37-3.09,3.59-1.94,2.44-3.57,5.03-4.99,7.63-1.42,2.63-2.62,5.29-3.71,7.98-.51,1.35-.99,2.73-1.47,4.1-.45,1.41-.87,2.79-1.2,4.26l-.03.03c-.1.52-.05,1.08.26,1.57.6.96,1.89,1.29,2.85.68,1.33-.78,2.55-1.69,3.73-2.6,1.18-.94,2.3-1.88,3.36-2.85,2.18-1.94,4.18-3.91,6.11-5.86,3.87-3.83,7.45-7.47,11.15-10.47.47-.39.93-.76,1.4-1.12.47-.36.93-.73,1.4-1.09l.71-.51.71-.48c.44-.33.93-.63,1.43-.97,1.99-1.27,4.22-2.5,6.51-3.76,2.32-1.26,4.68-2.52,7.13-3.78,1.21-.66,2.42-1.32,3.63-1.98,1.24-.66,2.48-1.32,3.69-2.01l.16-.12c.53-.3.93-.79,1.13-1.43ZM70.82,407.26c.47-3.07.48-6.18-.03-9.14-.23-1.48-.58-2.93-1.02-4.32-.44-1.39-1.01-2.72-1.61-4.02-.63-1.3-1.35-2.51-2.14-3.69-.78-1.18-1.63-2.3-2.57-3.33-.91-1.03-1.88-1.99-2.92-2.87-1.03-.91-2.07-1.75-3.26-2.41-1.19-.66-2.45-1.17-3.8-1.47-1.35-.26-2.73-.37-4.25-.09l-.49.15c-1.95.71-2.96,2.82-2.25,4.77l.15.43c.44,1.27.96,2.23,1.44,3.13.48.9.96,1.67,1.48,2.39.48.74,1,1.37,1.48,2.05.45.68.87,1.4,1.23,2.14.72,1.43,1.25,2.91,1.57,4.36.17.74.29,1.48.34,2.19.05.74.07,1.42.03,2.12-.08,1.35-.37,2.64-.79,3.84-.26.67-.54,1.32-.86,1.87-.28.58-.63,1.1-.97,1.56-.66.95-1.41,1.61-2.21,2.19-.4.27-.81.51-1.24.72l-.62.3-.34.15-.74.3c-5.1,2.09-7.55,7.93-5.44,13.07,2.09,5.07,7.87,7.49,12.97,5.46h.03s.03-.03.03-.03l.22-.09.56-.21c.37-.18.77-.36,1.18-.54.77-.36,1.52-.78,2.23-1.2.74-.45,1.43-.93,2.11-1.45.68-.51,1.34-1.06,1.96-1.64,2.49-2.27,4.47-5.05,5.89-7.92.7-1.47,1.27-2.94,1.69-4.41.42-1.47.75-2.91.95-4.36Z"/><path class="cls-1" d="M65.15,70.07c17.93,3.95,36.82-6.34,44.41-24.27-2.66-4.05-6.7-4.73-11.18-4.68-12.4.14-23.04,4.96-32.64,12.37-2.05,1.58-3.9,3.64-5.25,5.84-3.48,5.66-1.78,9.32,4.65,10.74Z"/></g></svg>