<svg xmlns="http://www.w3.org/2000/svg" version="1.1" xmlns:xlink="http://www.w3.org/1999/xlink" xmlns:svgjs="http://svgjs.dev/svgjs" viewBox="0 0 600 600"><path d="M193.00700346406768 209.79019351772496C186.88812223848174 222.55243106655308 183.21678892549346 229.89508752000364 180.41958586152862 267.48250003627965C177.62238279756377 305.06991255255565 139.86015033499868 406.64334038865593 176.22378508027862 435.3146686153812C212.58741982555856 463.9859968421065 361.7132844902721 466.95802239549187 398.6013943332083 439.5104693966312C435.4895041761445 412.06291639777055 401.57341988659374 308.21676186692747 397.5524441378958 270.62935062221715C393.53146838919787 233.04193937750682 386.88812732474474 229.8950913347009 374.4755398410208 213.9860019283695C362.06295235729687 198.07691252203813 341.60839048799346 182.69229694179722 323.07691923555205 175.17481418422886C304.54544798311065 167.6573314266605 280.94405332979034 166.25872862311235 263.28671232637237 168.88110538295933C245.6293713229544 171.50348214280632 228.84615802542837 184.09089338751664 217.13287321504424 190.9090747433109C205.41958840466012 197.72725609910515 199.12588468965362 197.02795596889683 193.00700346406768 209.79019351772496C186.88812223848174 222.55243106655308 183.21678892549346 229.89508752000364 180.41958586152862 267.48250003627965 " fill="hsl(0, 0%, 90%)"></path></svg>